<mxfile host="app.diagrams.net" modified="2022-01-14T06:57:49.103Z" agent="5.0 (X11; Linux x86_64) AppleWebKit/537.36 (KHTML, like Gecko) Chrome/95.0.4638.69 Safari/537.36" etag="WzjPNJtoK7ncfTE0FdBb" version="16.2.6" type="github">
  <diagram id="jSHMd2aRh1e1BJgxXP-O" name="Page-1">
    <mxGraphModel dx="2844" dy="6287" grid="1" gridSize="10" guides="1" tooltips="1" connect="1" arrows="1" fold="1" page="1" pageScale="1" pageWidth="3300" pageHeight="4681" math="0" shadow="0">
      <root>
        <mxCell id="0" />
        <mxCell id="1" parent="0" />
        <mxCell id="o6nMfCskGU3qGilAY7_D-102" value="实模式下的内存布局" style="shape=table;startSize=30;container=1;collapsible=0;childLayout=tableLayout;fontFamily=Times New Roman;fontSize=18;fontStyle=1;strokeColor=default;strokeWidth=2;fillColor=default;top=1;" parent="1" vertex="1">
          <mxGeometry x="110" y="-4570" width="500" height="510" as="geometry" />
        </mxCell>
        <mxCell id="o6nMfCskGU3qGilAY7_D-103" value="" style="shape=tableRow;horizontal=0;startSize=0;swimlaneHead=0;swimlaneBody=0;top=0;left=0;bottom=0;right=0;collapsible=0;dropTarget=0;fillColor=none;points=[[0,0.5],[1,0.5]];portConstraint=eastwest;fontFamily=Times New Roman;fontSize=18;" parent="o6nMfCskGU3qGilAY7_D-102" vertex="1">
          <mxGeometry y="30" width="500" height="30" as="geometry" />
        </mxCell>
        <mxCell id="o6nMfCskGU3qGilAY7_D-104" value="起始" style="shape=partialRectangle;html=1;whiteSpace=wrap;connectable=0;overflow=hidden;fillColor=none;top=0;left=0;bottom=0;right=0;pointerEvents=1;fontFamily=Times New Roman;fontSize=16;fontStyle=1" parent="o6nMfCskGU3qGilAY7_D-103" vertex="1">
          <mxGeometry width="60" height="30" as="geometry">
            <mxRectangle width="60" height="30" as="alternateBounds" />
          </mxGeometry>
        </mxCell>
        <mxCell id="o6nMfCskGU3qGilAY7_D-105" value="结束" style="shape=partialRectangle;html=1;whiteSpace=wrap;connectable=0;overflow=hidden;fillColor=none;top=0;left=0;bottom=0;right=0;pointerEvents=1;fontFamily=Times New Roman;fontSize=16;fontStyle=1" parent="o6nMfCskGU3qGilAY7_D-103" vertex="1">
          <mxGeometry x="60" width="60" height="30" as="geometry">
            <mxRectangle width="60" height="30" as="alternateBounds" />
          </mxGeometry>
        </mxCell>
        <mxCell id="o6nMfCskGU3qGilAY7_D-106" value="大小" style="shape=partialRectangle;html=1;whiteSpace=wrap;connectable=0;overflow=hidden;fillColor=none;top=0;left=0;bottom=0;right=0;pointerEvents=1;fontFamily=Times New Roman;fontSize=16;fontStyle=1" parent="o6nMfCskGU3qGilAY7_D-103" vertex="1">
          <mxGeometry x="120" width="70" height="30" as="geometry">
            <mxRectangle width="70" height="30" as="alternateBounds" />
          </mxGeometry>
        </mxCell>
        <mxCell id="o6nMfCskGU3qGilAY7_D-107" value="&lt;font style=&quot;font-size: 18px;&quot;&gt;用途&lt;/font&gt;" style="shape=partialRectangle;html=1;whiteSpace=wrap;connectable=0;overflow=hidden;fillColor=none;top=0;left=0;bottom=0;right=0;pointerEvents=1;fontFamily=Times New Roman;fontSize=18;fontStyle=1" parent="o6nMfCskGU3qGilAY7_D-103" vertex="1">
          <mxGeometry x="190" width="310" height="30" as="geometry">
            <mxRectangle width="310" height="30" as="alternateBounds" />
          </mxGeometry>
        </mxCell>
        <mxCell id="o6nMfCskGU3qGilAY7_D-118" value="" style="shape=tableRow;horizontal=0;startSize=0;swimlaneHead=0;swimlaneBody=0;top=0;left=0;bottom=0;right=0;collapsible=0;dropTarget=0;fillColor=none;points=[[0,0.5],[1,0.5]];portConstraint=eastwest;fontFamily=Times New Roman;fontSize=18;" parent="o6nMfCskGU3qGilAY7_D-102" vertex="1">
          <mxGeometry y="60" width="500" height="30" as="geometry" />
        </mxCell>
        <mxCell id="o6nMfCskGU3qGilAY7_D-119" value="FFFF0" style="shape=partialRectangle;html=1;whiteSpace=wrap;connectable=0;overflow=hidden;fillColor=#ffe6cc;top=1;left=1;bottom=1;right=1;pointerEvents=1;fontFamily=Times New Roman;fontSize=16;fontStyle=1;strokeColor=#000000;" parent="o6nMfCskGU3qGilAY7_D-118" vertex="1">
          <mxGeometry width="60" height="30" as="geometry">
            <mxRectangle width="60" height="30" as="alternateBounds" />
          </mxGeometry>
        </mxCell>
        <mxCell id="o6nMfCskGU3qGilAY7_D-120" value="FFFFF" style="shape=partialRectangle;html=1;whiteSpace=wrap;connectable=0;overflow=hidden;fillColor=#ffe6cc;top=1;left=1;bottom=1;right=1;pointerEvents=1;fontFamily=Times New Roman;fontSize=16;fontStyle=1;strokeColor=#000000;" parent="o6nMfCskGU3qGilAY7_D-118" vertex="1">
          <mxGeometry x="60" width="60" height="30" as="geometry">
            <mxRectangle width="60" height="30" as="alternateBounds" />
          </mxGeometry>
        </mxCell>
        <mxCell id="o6nMfCskGU3qGilAY7_D-121" value="16B" style="shape=partialRectangle;html=1;whiteSpace=wrap;connectable=0;overflow=hidden;fillColor=#ffe6cc;top=1;left=1;bottom=1;right=1;pointerEvents=1;fontFamily=Times New Roman;fontSize=16;fontStyle=1;strokeColor=#000000;" parent="o6nMfCskGU3qGilAY7_D-118" vertex="1">
          <mxGeometry x="120" width="70" height="30" as="geometry">
            <mxRectangle width="70" height="30" as="alternateBounds" />
          </mxGeometry>
        </mxCell>
        <mxCell id="o6nMfCskGU3qGilAY7_D-122" value="BIOS入口地址，此地址的指令是jmp f000:e05b" style="shape=partialRectangle;html=1;whiteSpace=wrap;connectable=0;overflow=hidden;fillColor=#ffe6cc;top=1;left=1;bottom=1;right=1;pointerEvents=1;fontFamily=Times New Roman;fontSize=15;strokeColor=#000000;" parent="o6nMfCskGU3qGilAY7_D-118" vertex="1">
          <mxGeometry x="190" width="310" height="30" as="geometry">
            <mxRectangle width="310" height="30" as="alternateBounds" />
          </mxGeometry>
        </mxCell>
        <mxCell id="o6nMfCskGU3qGilAY7_D-123" value="" style="shape=tableRow;horizontal=0;startSize=0;swimlaneHead=0;swimlaneBody=0;top=0;left=0;bottom=0;right=0;collapsible=0;dropTarget=0;fillColor=none;points=[[0,0.5],[1,0.5]];portConstraint=eastwest;fontFamily=Times New Roman;fontSize=18;" parent="o6nMfCskGU3qGilAY7_D-102" vertex="1">
          <mxGeometry y="90" width="500" height="30" as="geometry" />
        </mxCell>
        <mxCell id="o6nMfCskGU3qGilAY7_D-124" value="F0000" style="shape=partialRectangle;html=1;whiteSpace=wrap;connectable=0;overflow=hidden;fillColor=#ffe6cc;top=1;left=1;bottom=1;right=1;pointerEvents=1;fontFamily=Times New Roman;fontSize=16;fontStyle=1;strokeColor=#000000;" parent="o6nMfCskGU3qGilAY7_D-123" vertex="1">
          <mxGeometry width="60" height="30" as="geometry">
            <mxRectangle width="60" height="30" as="alternateBounds" />
          </mxGeometry>
        </mxCell>
        <mxCell id="o6nMfCskGU3qGilAY7_D-125" value="FFFEF" style="shape=partialRectangle;html=1;whiteSpace=wrap;connectable=0;overflow=hidden;fillColor=#ffe6cc;top=1;left=1;bottom=1;right=1;pointerEvents=1;fontFamily=Times New Roman;fontSize=16;fontStyle=1;strokeColor=#000000;" parent="o6nMfCskGU3qGilAY7_D-123" vertex="1">
          <mxGeometry x="60" width="60" height="30" as="geometry">
            <mxRectangle width="60" height="30" as="alternateBounds" />
          </mxGeometry>
        </mxCell>
        <mxCell id="o6nMfCskGU3qGilAY7_D-126" value="160KB" style="shape=partialRectangle;html=1;whiteSpace=wrap;connectable=0;overflow=hidden;fillColor=#ffe6cc;top=1;left=1;bottom=1;right=1;pointerEvents=1;fontFamily=Times New Roman;fontSize=16;fontStyle=1;strokeColor=#000000;" parent="o6nMfCskGU3qGilAY7_D-123" vertex="1">
          <mxGeometry x="120" width="70" height="30" as="geometry">
            <mxRectangle width="70" height="30" as="alternateBounds" />
          </mxGeometry>
        </mxCell>
        <mxCell id="o6nMfCskGU3qGilAY7_D-127" value="系统BIOS范围是F0000~FFFFF共64KB" style="shape=partialRectangle;html=1;whiteSpace=wrap;connectable=0;overflow=hidden;fillColor=#ffe6cc;top=1;left=1;bottom=1;right=1;pointerEvents=1;fontFamily=Times New Roman;fontSize=15;strokeColor=#000000;sketch=0;shadow=0;" parent="o6nMfCskGU3qGilAY7_D-123" vertex="1">
          <mxGeometry x="190" width="310" height="30" as="geometry">
            <mxRectangle width="310" height="30" as="alternateBounds" />
          </mxGeometry>
        </mxCell>
        <mxCell id="o6nMfCskGU3qGilAY7_D-188" style="shape=tableRow;horizontal=0;startSize=0;swimlaneHead=0;swimlaneBody=0;top=0;left=0;bottom=0;right=0;collapsible=0;dropTarget=0;fillColor=none;points=[[0,0.5],[1,0.5]];portConstraint=eastwest;fontFamily=Times New Roman;fontSize=18;" parent="o6nMfCskGU3qGilAY7_D-102" vertex="1">
          <mxGeometry y="120" width="500" height="30" as="geometry" />
        </mxCell>
        <mxCell id="o6nMfCskGU3qGilAY7_D-189" value="C8000" style="shape=partialRectangle;html=1;whiteSpace=wrap;connectable=0;overflow=hidden;fillColor=none;top=0;left=0;bottom=0;right=0;pointerEvents=1;fontFamily=Times New Roman;fontSize=16;fontStyle=1" parent="o6nMfCskGU3qGilAY7_D-188" vertex="1">
          <mxGeometry width="60" height="30" as="geometry">
            <mxRectangle width="60" height="30" as="alternateBounds" />
          </mxGeometry>
        </mxCell>
        <mxCell id="o6nMfCskGU3qGilAY7_D-190" value="EFFFF" style="shape=partialRectangle;html=1;whiteSpace=wrap;connectable=0;overflow=hidden;fillColor=none;top=0;left=0;bottom=0;right=0;pointerEvents=1;fontFamily=Times New Roman;fontSize=16;fontStyle=1" parent="o6nMfCskGU3qGilAY7_D-188" vertex="1">
          <mxGeometry x="60" width="60" height="30" as="geometry">
            <mxRectangle width="60" height="30" as="alternateBounds" />
          </mxGeometry>
        </mxCell>
        <mxCell id="o6nMfCskGU3qGilAY7_D-191" value="32KB" style="shape=partialRectangle;html=1;whiteSpace=wrap;connectable=0;overflow=hidden;fillColor=none;top=0;left=0;bottom=0;right=0;pointerEvents=1;fontFamily=Times New Roman;fontSize=16;fontStyle=1" parent="o6nMfCskGU3qGilAY7_D-188" vertex="1">
          <mxGeometry x="120" width="70" height="30" as="geometry">
            <mxRectangle width="70" height="30" as="alternateBounds" />
          </mxGeometry>
        </mxCell>
        <mxCell id="o6nMfCskGU3qGilAY7_D-192" value="映射硬件适配器的ROM或内存映射式IO" style="shape=partialRectangle;html=1;whiteSpace=wrap;connectable=0;overflow=hidden;fillColor=none;top=0;left=0;bottom=0;right=0;pointerEvents=1;fontFamily=Times New Roman;fontSize=15;" parent="o6nMfCskGU3qGilAY7_D-188" vertex="1">
          <mxGeometry x="190" width="310" height="30" as="geometry">
            <mxRectangle width="310" height="30" as="alternateBounds" />
          </mxGeometry>
        </mxCell>
        <mxCell id="o6nMfCskGU3qGilAY7_D-128" value="" style="shape=tableRow;horizontal=0;startSize=0;swimlaneHead=0;swimlaneBody=0;top=0;left=0;bottom=0;right=0;collapsible=0;dropTarget=0;fillColor=none;points=[[0,0.5],[1,0.5]];portConstraint=eastwest;fontFamily=Times New Roman;fontSize=18;" parent="o6nMfCskGU3qGilAY7_D-102" vertex="1">
          <mxGeometry y="150" width="500" height="30" as="geometry" />
        </mxCell>
        <mxCell id="o6nMfCskGU3qGilAY7_D-129" value="C0000" style="shape=partialRectangle;html=1;whiteSpace=wrap;connectable=0;overflow=hidden;fillColor=none;top=0;left=0;bottom=0;right=0;pointerEvents=1;fontFamily=Times New Roman;fontSize=16;fontStyle=1" parent="o6nMfCskGU3qGilAY7_D-128" vertex="1">
          <mxGeometry width="60" height="30" as="geometry">
            <mxRectangle width="60" height="30" as="alternateBounds" />
          </mxGeometry>
        </mxCell>
        <mxCell id="o6nMfCskGU3qGilAY7_D-130" value="C7FFF" style="shape=partialRectangle;html=1;whiteSpace=wrap;connectable=0;overflow=hidden;fillColor=none;top=0;left=0;bottom=0;right=0;pointerEvents=1;fontFamily=Times New Roman;fontSize=16;fontStyle=1" parent="o6nMfCskGU3qGilAY7_D-128" vertex="1">
          <mxGeometry x="60" width="60" height="30" as="geometry">
            <mxRectangle width="60" height="30" as="alternateBounds" />
          </mxGeometry>
        </mxCell>
        <mxCell id="o6nMfCskGU3qGilAY7_D-131" value="32KB" style="shape=partialRectangle;html=1;whiteSpace=wrap;connectable=0;overflow=hidden;fillColor=none;top=0;left=0;bottom=0;right=0;pointerEvents=1;fontFamily=Times New Roman;fontSize=16;fontStyle=1" parent="o6nMfCskGU3qGilAY7_D-128" vertex="1">
          <mxGeometry x="120" width="70" height="30" as="geometry">
            <mxRectangle width="70" height="30" as="alternateBounds" />
          </mxGeometry>
        </mxCell>
        <mxCell id="o6nMfCskGU3qGilAY7_D-132" value="显示适配器BIOS" style="shape=partialRectangle;html=1;whiteSpace=wrap;connectable=0;overflow=hidden;fillColor=none;top=0;left=0;bottom=0;right=0;pointerEvents=1;fontFamily=Times New Roman;fontSize=15;" parent="o6nMfCskGU3qGilAY7_D-128" vertex="1">
          <mxGeometry x="190" width="310" height="30" as="geometry">
            <mxRectangle width="310" height="30" as="alternateBounds" />
          </mxGeometry>
        </mxCell>
        <mxCell id="o6nMfCskGU3qGilAY7_D-133" value="" style="shape=tableRow;horizontal=0;startSize=0;swimlaneHead=0;swimlaneBody=0;top=0;left=0;bottom=0;right=0;collapsible=0;dropTarget=0;fillColor=none;points=[[0,0.5],[1,0.5]];portConstraint=eastwest;fontFamily=Times New Roman;fontSize=18;" parent="o6nMfCskGU3qGilAY7_D-102" vertex="1">
          <mxGeometry y="180" width="500" height="30" as="geometry" />
        </mxCell>
        <mxCell id="o6nMfCskGU3qGilAY7_D-134" value="B8000" style="shape=partialRectangle;html=1;whiteSpace=wrap;connectable=0;overflow=hidden;fillColor=none;top=0;left=0;bottom=0;right=0;pointerEvents=1;fontFamily=Times New Roman;fontSize=16;fontStyle=1" parent="o6nMfCskGU3qGilAY7_D-133" vertex="1">
          <mxGeometry width="60" height="30" as="geometry">
            <mxRectangle width="60" height="30" as="alternateBounds" />
          </mxGeometry>
        </mxCell>
        <mxCell id="o6nMfCskGU3qGilAY7_D-135" value="BFFFF" style="shape=partialRectangle;html=1;whiteSpace=wrap;connectable=0;overflow=hidden;fillColor=none;top=0;left=0;bottom=0;right=0;pointerEvents=1;fontFamily=Times New Roman;fontSize=16;fontStyle=1" parent="o6nMfCskGU3qGilAY7_D-133" vertex="1">
          <mxGeometry x="60" width="60" height="30" as="geometry">
            <mxRectangle width="60" height="30" as="alternateBounds" />
          </mxGeometry>
        </mxCell>
        <mxCell id="o6nMfCskGU3qGilAY7_D-136" value="32KB" style="shape=partialRectangle;html=1;whiteSpace=wrap;connectable=0;overflow=hidden;fillColor=none;top=0;left=0;bottom=0;right=0;pointerEvents=1;fontFamily=Times New Roman;fontSize=16;fontStyle=1" parent="o6nMfCskGU3qGilAY7_D-133" vertex="1">
          <mxGeometry x="120" width="70" height="30" as="geometry">
            <mxRectangle width="70" height="30" as="alternateBounds" />
          </mxGeometry>
        </mxCell>
        <mxCell id="o6nMfCskGU3qGilAY7_D-137" value="用于文本模式显示适配器" style="shape=partialRectangle;html=1;whiteSpace=wrap;connectable=0;overflow=hidden;fillColor=none;top=0;left=0;bottom=0;right=0;pointerEvents=1;fontFamily=Times New Roman;fontSize=15;" parent="o6nMfCskGU3qGilAY7_D-133" vertex="1">
          <mxGeometry x="190" width="310" height="30" as="geometry">
            <mxRectangle width="310" height="30" as="alternateBounds" />
          </mxGeometry>
        </mxCell>
        <mxCell id="o6nMfCskGU3qGilAY7_D-138" value="" style="shape=tableRow;horizontal=0;startSize=0;swimlaneHead=0;swimlaneBody=0;top=0;left=0;bottom=0;right=0;collapsible=0;dropTarget=0;fillColor=none;points=[[0,0.5],[1,0.5]];portConstraint=eastwest;fontFamily=Times New Roman;fontSize=18;" parent="o6nMfCskGU3qGilAY7_D-102" vertex="1">
          <mxGeometry y="210" width="500" height="30" as="geometry" />
        </mxCell>
        <mxCell id="o6nMfCskGU3qGilAY7_D-139" value="B0000" style="shape=partialRectangle;html=1;whiteSpace=wrap;connectable=0;overflow=hidden;fillColor=none;top=0;left=0;bottom=0;right=0;pointerEvents=1;fontFamily=Times New Roman;fontSize=16;fontStyle=1" parent="o6nMfCskGU3qGilAY7_D-138" vertex="1">
          <mxGeometry width="60" height="30" as="geometry">
            <mxRectangle width="60" height="30" as="alternateBounds" />
          </mxGeometry>
        </mxCell>
        <mxCell id="o6nMfCskGU3qGilAY7_D-140" value="B7FFF" style="shape=partialRectangle;html=1;whiteSpace=wrap;connectable=0;overflow=hidden;fillColor=none;top=0;left=0;bottom=0;right=0;pointerEvents=1;fontFamily=Times New Roman;fontSize=16;fontStyle=1" parent="o6nMfCskGU3qGilAY7_D-138" vertex="1">
          <mxGeometry x="60" width="60" height="30" as="geometry">
            <mxRectangle width="60" height="30" as="alternateBounds" />
          </mxGeometry>
        </mxCell>
        <mxCell id="o6nMfCskGU3qGilAY7_D-141" value="32KB" style="shape=partialRectangle;html=1;whiteSpace=wrap;connectable=0;overflow=hidden;fillColor=none;top=0;left=0;bottom=0;right=0;pointerEvents=1;fontFamily=Times New Roman;fontSize=16;fontStyle=1" parent="o6nMfCskGU3qGilAY7_D-138" vertex="1">
          <mxGeometry x="120" width="70" height="30" as="geometry">
            <mxRectangle width="70" height="30" as="alternateBounds" />
          </mxGeometry>
        </mxCell>
        <mxCell id="o6nMfCskGU3qGilAY7_D-142" value="用于黑白显示适配器" style="shape=partialRectangle;html=1;whiteSpace=wrap;connectable=0;overflow=hidden;fillColor=none;top=0;left=0;bottom=0;right=0;pointerEvents=1;fontFamily=Times New Roman;fontSize=15;" parent="o6nMfCskGU3qGilAY7_D-138" vertex="1">
          <mxGeometry x="190" width="310" height="30" as="geometry">
            <mxRectangle width="310" height="30" as="alternateBounds" />
          </mxGeometry>
        </mxCell>
        <mxCell id="o6nMfCskGU3qGilAY7_D-143" value="" style="shape=tableRow;horizontal=0;startSize=0;swimlaneHead=0;swimlaneBody=0;top=0;left=0;bottom=0;right=0;collapsible=0;dropTarget=0;fillColor=none;points=[[0,0.5],[1,0.5]];portConstraint=eastwest;fontFamily=Times New Roman;fontSize=18;" parent="o6nMfCskGU3qGilAY7_D-102" vertex="1">
          <mxGeometry y="240" width="500" height="30" as="geometry" />
        </mxCell>
        <mxCell id="o6nMfCskGU3qGilAY7_D-144" value="A0000" style="shape=partialRectangle;html=1;whiteSpace=wrap;connectable=0;overflow=hidden;fillColor=none;top=0;left=0;bottom=0;right=0;pointerEvents=1;fontFamily=Times New Roman;fontSize=16;fontStyle=1" parent="o6nMfCskGU3qGilAY7_D-143" vertex="1">
          <mxGeometry width="60" height="30" as="geometry">
            <mxRectangle width="60" height="30" as="alternateBounds" />
          </mxGeometry>
        </mxCell>
        <mxCell id="o6nMfCskGU3qGilAY7_D-145" value="AFFFF" style="shape=partialRectangle;html=1;whiteSpace=wrap;connectable=0;overflow=hidden;fillColor=none;top=0;left=0;bottom=0;right=0;pointerEvents=1;fontFamily=Times New Roman;fontSize=16;fontStyle=1" parent="o6nMfCskGU3qGilAY7_D-143" vertex="1">
          <mxGeometry x="60" width="60" height="30" as="geometry">
            <mxRectangle width="60" height="30" as="alternateBounds" />
          </mxGeometry>
        </mxCell>
        <mxCell id="o6nMfCskGU3qGilAY7_D-146" value="64KB" style="shape=partialRectangle;html=1;whiteSpace=wrap;connectable=0;overflow=hidden;fillColor=none;top=0;left=0;bottom=0;right=0;pointerEvents=1;fontFamily=Times New Roman;fontSize=16;fontStyle=1" parent="o6nMfCskGU3qGilAY7_D-143" vertex="1">
          <mxGeometry x="120" width="70" height="30" as="geometry">
            <mxRectangle width="70" height="30" as="alternateBounds" />
          </mxGeometry>
        </mxCell>
        <mxCell id="o6nMfCskGU3qGilAY7_D-147" value="用于彩色显示适配器" style="shape=partialRectangle;html=1;whiteSpace=wrap;connectable=0;overflow=hidden;fillColor=none;top=0;left=0;bottom=0;right=0;pointerEvents=1;fontFamily=Times New Roman;fontSize=15;" parent="o6nMfCskGU3qGilAY7_D-143" vertex="1">
          <mxGeometry x="190" width="310" height="30" as="geometry">
            <mxRectangle width="310" height="30" as="alternateBounds" />
          </mxGeometry>
        </mxCell>
        <mxCell id="o6nMfCskGU3qGilAY7_D-148" value="" style="shape=tableRow;horizontal=0;startSize=0;swimlaneHead=0;swimlaneBody=0;top=0;left=0;bottom=0;right=0;collapsible=0;dropTarget=0;fillColor=none;points=[[0,0.5],[1,0.5]];portConstraint=eastwest;fontFamily=Times New Roman;fontSize=18;" parent="o6nMfCskGU3qGilAY7_D-102" vertex="1">
          <mxGeometry y="270" width="500" height="30" as="geometry" />
        </mxCell>
        <mxCell id="o6nMfCskGU3qGilAY7_D-149" value="9FC00" style="shape=partialRectangle;html=1;whiteSpace=wrap;connectable=0;overflow=hidden;fillColor=none;top=0;left=0;bottom=0;right=0;pointerEvents=1;fontFamily=Times New Roman;fontSize=16;fontStyle=1" parent="o6nMfCskGU3qGilAY7_D-148" vertex="1">
          <mxGeometry width="60" height="30" as="geometry">
            <mxRectangle width="60" height="30" as="alternateBounds" />
          </mxGeometry>
        </mxCell>
        <mxCell id="o6nMfCskGU3qGilAY7_D-150" value="9FFFF" style="shape=partialRectangle;html=1;whiteSpace=wrap;connectable=0;overflow=hidden;fillColor=none;top=0;left=0;bottom=0;right=0;pointerEvents=1;fontFamily=Times New Roman;fontSize=16;fontStyle=1" parent="o6nMfCskGU3qGilAY7_D-148" vertex="1">
          <mxGeometry x="60" width="60" height="30" as="geometry">
            <mxRectangle width="60" height="30" as="alternateBounds" />
          </mxGeometry>
        </mxCell>
        <mxCell id="o6nMfCskGU3qGilAY7_D-151" value="1KB" style="shape=partialRectangle;html=1;whiteSpace=wrap;connectable=0;overflow=hidden;fillColor=none;top=0;left=0;bottom=0;right=0;pointerEvents=1;fontFamily=Times New Roman;fontSize=16;fontStyle=1" parent="o6nMfCskGU3qGilAY7_D-148" vertex="1">
          <mxGeometry x="120" width="70" height="30" as="geometry">
            <mxRectangle width="70" height="30" as="alternateBounds" />
          </mxGeometry>
        </mxCell>
        <mxCell id="o6nMfCskGU3qGilAY7_D-152" value="EBDA 扩展BIOS数据区" style="shape=partialRectangle;html=1;whiteSpace=wrap;connectable=0;overflow=hidden;fillColor=none;top=0;left=0;bottom=0;right=0;pointerEvents=1;fontFamily=Times New Roman;fontSize=15;" parent="o6nMfCskGU3qGilAY7_D-148" vertex="1">
          <mxGeometry x="190" width="310" height="30" as="geometry">
            <mxRectangle width="310" height="30" as="alternateBounds" />
          </mxGeometry>
        </mxCell>
        <mxCell id="o6nMfCskGU3qGilAY7_D-153" value="" style="shape=tableRow;horizontal=0;startSize=0;swimlaneHead=0;swimlaneBody=0;top=0;left=0;bottom=0;right=0;collapsible=0;dropTarget=0;fillColor=none;points=[[0,0.5],[1,0.5]];portConstraint=eastwest;fontFamily=Times New Roman;fontSize=18;" parent="o6nMfCskGU3qGilAY7_D-102" vertex="1">
          <mxGeometry y="300" width="500" height="30" as="geometry" />
        </mxCell>
        <mxCell id="o6nMfCskGU3qGilAY7_D-154" value="7E00" style="shape=partialRectangle;html=1;whiteSpace=wrap;connectable=0;overflow=hidden;fillColor=none;top=0;left=0;bottom=0;right=0;pointerEvents=1;fontFamily=Times New Roman;fontSize=16;fontStyle=1" parent="o6nMfCskGU3qGilAY7_D-153" vertex="1">
          <mxGeometry width="60" height="30" as="geometry">
            <mxRectangle width="60" height="30" as="alternateBounds" />
          </mxGeometry>
        </mxCell>
        <mxCell id="o6nMfCskGU3qGilAY7_D-155" value="9FBFF" style="shape=partialRectangle;html=1;whiteSpace=wrap;connectable=0;overflow=hidden;fillColor=none;top=0;left=0;bottom=0;right=0;pointerEvents=1;fontFamily=Times New Roman;fontSize=16;fontStyle=1" parent="o6nMfCskGU3qGilAY7_D-153" vertex="1">
          <mxGeometry x="60" width="60" height="30" as="geometry">
            <mxRectangle width="60" height="30" as="alternateBounds" />
          </mxGeometry>
        </mxCell>
        <mxCell id="o6nMfCskGU3qGilAY7_D-156" value="~608KB" style="shape=partialRectangle;html=1;whiteSpace=wrap;connectable=0;overflow=hidden;fillColor=none;top=0;left=0;bottom=0;right=0;pointerEvents=1;fontFamily=Times New Roman;fontSize=16;fontStyle=1" parent="o6nMfCskGU3qGilAY7_D-153" vertex="1">
          <mxGeometry x="120" width="70" height="30" as="geometry">
            <mxRectangle width="70" height="30" as="alternateBounds" />
          </mxGeometry>
        </mxCell>
        <mxCell id="o6nMfCskGU3qGilAY7_D-157" value="可用区域" style="shape=partialRectangle;html=1;whiteSpace=wrap;connectable=0;overflow=hidden;fillColor=none;top=0;left=0;bottom=0;right=0;pointerEvents=1;fontFamily=Times New Roman;fontSize=15;" parent="o6nMfCskGU3qGilAY7_D-153" vertex="1">
          <mxGeometry x="190" width="310" height="30" as="geometry">
            <mxRectangle width="310" height="30" as="alternateBounds" />
          </mxGeometry>
        </mxCell>
        <mxCell id="o6nMfCskGU3qGilAY7_D-158" value="" style="shape=tableRow;horizontal=0;startSize=0;swimlaneHead=0;swimlaneBody=0;top=0;left=0;bottom=0;right=0;collapsible=0;dropTarget=0;fillColor=none;points=[[0,0.5],[1,0.5]];portConstraint=eastwest;fontFamily=Times New Roman;fontSize=18;" parent="o6nMfCskGU3qGilAY7_D-102" vertex="1">
          <mxGeometry y="330" width="500" height="30" as="geometry" />
        </mxCell>
        <mxCell id="o6nMfCskGU3qGilAY7_D-159" value="7C00" style="shape=partialRectangle;html=1;whiteSpace=wrap;connectable=0;overflow=hidden;fillColor=#b1ddf0;top=1;left=1;bottom=1;right=1;pointerEvents=1;fontFamily=Times New Roman;fontSize=16;fontStyle=1;strokeColor=#000000;fillOpacity=100;" parent="o6nMfCskGU3qGilAY7_D-158" vertex="1">
          <mxGeometry width="60" height="30" as="geometry">
            <mxRectangle width="60" height="30" as="alternateBounds" />
          </mxGeometry>
        </mxCell>
        <mxCell id="o6nMfCskGU3qGilAY7_D-160" value="7DFF" style="shape=partialRectangle;html=1;whiteSpace=wrap;connectable=0;overflow=hidden;fillColor=#b1ddf0;top=1;left=1;bottom=1;right=1;pointerEvents=1;fontFamily=Times New Roman;fontSize=16;fontStyle=1;strokeColor=#000000;fillOpacity=100;" parent="o6nMfCskGU3qGilAY7_D-158" vertex="1">
          <mxGeometry x="60" width="60" height="30" as="geometry">
            <mxRectangle width="60" height="30" as="alternateBounds" />
          </mxGeometry>
        </mxCell>
        <mxCell id="o6nMfCskGU3qGilAY7_D-161" value="512B" style="shape=partialRectangle;html=1;whiteSpace=wrap;connectable=0;overflow=hidden;fillColor=#b1ddf0;top=1;left=1;bottom=1;right=1;pointerEvents=1;fontFamily=Times New Roman;fontSize=16;fontStyle=1;strokeColor=#000000;fillOpacity=100;" parent="o6nMfCskGU3qGilAY7_D-158" vertex="1">
          <mxGeometry x="120" width="70" height="30" as="geometry">
            <mxRectangle width="70" height="30" as="alternateBounds" />
          </mxGeometry>
        </mxCell>
        <mxCell id="o6nMfCskGU3qGilAY7_D-162" value="MBR被BIOS加载到此处，共512字节" style="shape=partialRectangle;html=1;whiteSpace=wrap;connectable=0;overflow=hidden;fillColor=#b1ddf0;top=1;left=1;bottom=1;right=1;pointerEvents=1;fontFamily=Times New Roman;fontSize=15;strokeColor=#000000;fillOpacity=100;" parent="o6nMfCskGU3qGilAY7_D-158" vertex="1">
          <mxGeometry x="190" width="310" height="30" as="geometry">
            <mxRectangle width="310" height="30" as="alternateBounds" />
          </mxGeometry>
        </mxCell>
        <mxCell id="o6nMfCskGU3qGilAY7_D-163" value="" style="shape=tableRow;horizontal=0;startSize=0;swimlaneHead=0;swimlaneBody=0;top=0;left=0;bottom=0;right=0;collapsible=0;dropTarget=0;fillColor=none;points=[[0,0.5],[1,0.5]];portConstraint=eastwest;fontFamily=Times New Roman;fontSize=18;" parent="o6nMfCskGU3qGilAY7_D-102" vertex="1">
          <mxGeometry y="360" width="500" height="30" as="geometry" />
        </mxCell>
        <mxCell id="o6nMfCskGU3qGilAY7_D-164" value="AFF" style="shape=partialRectangle;html=1;whiteSpace=wrap;connectable=0;overflow=hidden;fillColor=none;top=0;left=0;bottom=0;right=0;pointerEvents=1;fontFamily=Times New Roman;fontSize=16;fontStyle=1" parent="o6nMfCskGU3qGilAY7_D-163" vertex="1">
          <mxGeometry width="60" height="30" as="geometry">
            <mxRectangle width="60" height="30" as="alternateBounds" />
          </mxGeometry>
        </mxCell>
        <mxCell id="o6nMfCskGU3qGilAY7_D-165" value="7BFF" style="shape=partialRectangle;html=1;whiteSpace=wrap;connectable=0;overflow=hidden;fillColor=none;top=0;left=0;bottom=0;right=0;pointerEvents=1;fontFamily=Times New Roman;fontSize=16;fontStyle=1" parent="o6nMfCskGU3qGilAY7_D-163" vertex="1">
          <mxGeometry x="60" width="60" height="30" as="geometry">
            <mxRectangle width="60" height="30" as="alternateBounds" />
          </mxGeometry>
        </mxCell>
        <mxCell id="o6nMfCskGU3qGilAY7_D-166" value="~" style="shape=partialRectangle;html=1;whiteSpace=wrap;connectable=0;overflow=hidden;fillColor=none;top=0;left=0;bottom=0;right=0;pointerEvents=1;fontFamily=Times New Roman;fontSize=16;fontStyle=1" parent="o6nMfCskGU3qGilAY7_D-163" vertex="1">
          <mxGeometry x="120" width="70" height="30" as="geometry">
            <mxRectangle width="70" height="30" as="alternateBounds" />
          </mxGeometry>
        </mxCell>
        <mxCell id="o6nMfCskGU3qGilAY7_D-167" value="可用区域" style="shape=partialRectangle;html=1;whiteSpace=wrap;connectable=0;overflow=hidden;fillColor=none;top=0;left=0;bottom=0;right=0;pointerEvents=1;fontFamily=Times New Roman;fontSize=15;" parent="o6nMfCskGU3qGilAY7_D-163" vertex="1">
          <mxGeometry x="190" width="310" height="30" as="geometry">
            <mxRectangle width="310" height="30" as="alternateBounds" />
          </mxGeometry>
        </mxCell>
        <mxCell id="o6nMfCskGU3qGilAY7_D-168" value="" style="shape=tableRow;horizontal=0;startSize=0;swimlaneHead=0;swimlaneBody=0;top=0;left=0;bottom=0;right=0;collapsible=0;dropTarget=0;fillColor=none;points=[[0,0.5],[1,0.5]];portConstraint=eastwest;fontFamily=Times New Roman;fontSize=18;" parent="o6nMfCskGU3qGilAY7_D-102" vertex="1">
          <mxGeometry y="390" width="500" height="30" as="geometry" />
        </mxCell>
        <mxCell id="o6nMfCskGU3qGilAY7_D-169" value="900" style="shape=partialRectangle;html=1;whiteSpace=wrap;connectable=0;overflow=hidden;fillColor=#f8cecc;top=1;left=1;bottom=1;right=1;pointerEvents=1;fontFamily=Times New Roman;fontSize=16;fontStyle=1;strokeColor=#000000;" parent="o6nMfCskGU3qGilAY7_D-168" vertex="1">
          <mxGeometry width="60" height="30" as="geometry">
            <mxRectangle width="60" height="30" as="alternateBounds" />
          </mxGeometry>
        </mxCell>
        <mxCell id="o6nMfCskGU3qGilAY7_D-170" value="AFF" style="shape=partialRectangle;html=1;whiteSpace=wrap;connectable=0;overflow=hidden;fillColor=#f8cecc;top=1;left=1;bottom=1;right=1;pointerEvents=1;fontFamily=Times New Roman;fontSize=16;fontStyle=1;strokeColor=#000000;" parent="o6nMfCskGU3qGilAY7_D-168" vertex="1">
          <mxGeometry x="60" width="60" height="30" as="geometry">
            <mxRectangle width="60" height="30" as="alternateBounds" />
          </mxGeometry>
        </mxCell>
        <mxCell id="o6nMfCskGU3qGilAY7_D-171" value="98B" style="shape=partialRectangle;html=1;whiteSpace=wrap;connectable=0;overflow=hidden;fillColor=#f8cecc;top=1;left=1;bottom=1;right=1;pointerEvents=1;fontFamily=Times New Roman;fontSize=16;fontStyle=1;strokeColor=#000000;" parent="o6nMfCskGU3qGilAY7_D-168" vertex="1">
          <mxGeometry x="120" width="70" height="30" as="geometry">
            <mxRectangle width="70" height="30" as="alternateBounds" />
          </mxGeometry>
        </mxCell>
        <mxCell id="o6nMfCskGU3qGilAY7_D-172" value="内核加载器Loader被MBR加载到此处" style="shape=partialRectangle;html=1;whiteSpace=wrap;connectable=0;overflow=hidden;fillColor=#f8cecc;top=1;left=1;bottom=1;right=1;pointerEvents=1;fontFamily=Times New Roman;fontSize=15;strokeColor=#000000;" parent="o6nMfCskGU3qGilAY7_D-168" vertex="1">
          <mxGeometry x="190" width="310" height="30" as="geometry">
            <mxRectangle width="310" height="30" as="alternateBounds" />
          </mxGeometry>
        </mxCell>
        <mxCell id="o6nMfCskGU3qGilAY7_D-173" value="" style="shape=tableRow;horizontal=0;startSize=0;swimlaneHead=0;swimlaneBody=0;top=0;left=0;bottom=0;right=0;collapsible=0;dropTarget=0;fillColor=none;points=[[0,0.5],[1,0.5]];portConstraint=eastwest;fontFamily=Times New Roman;fontSize=18;" parent="o6nMfCskGU3qGilAY7_D-102" vertex="1">
          <mxGeometry y="420" width="500" height="30" as="geometry" />
        </mxCell>
        <mxCell id="o6nMfCskGU3qGilAY7_D-174" value="500" style="shape=partialRectangle;html=1;whiteSpace=wrap;connectable=0;overflow=hidden;fillColor=none;top=0;left=0;bottom=0;right=0;pointerEvents=1;fontFamily=Times New Roman;fontSize=16;fontStyle=1" parent="o6nMfCskGU3qGilAY7_D-173" vertex="1">
          <mxGeometry width="60" height="30" as="geometry">
            <mxRectangle width="60" height="30" as="alternateBounds" />
          </mxGeometry>
        </mxCell>
        <mxCell id="o6nMfCskGU3qGilAY7_D-175" value="8FF" style="shape=partialRectangle;html=1;whiteSpace=wrap;connectable=0;overflow=hidden;fillColor=none;top=0;left=0;bottom=0;right=0;pointerEvents=1;fontFamily=Times New Roman;fontSize=16;fontStyle=1" parent="o6nMfCskGU3qGilAY7_D-173" vertex="1">
          <mxGeometry x="60" width="60" height="30" as="geometry">
            <mxRectangle width="60" height="30" as="alternateBounds" />
          </mxGeometry>
        </mxCell>
        <mxCell id="o6nMfCskGU3qGilAY7_D-176" value="1KB" style="shape=partialRectangle;html=1;whiteSpace=wrap;connectable=0;overflow=hidden;fillColor=none;top=0;left=0;bottom=0;right=0;pointerEvents=1;fontFamily=Times New Roman;fontSize=16;fontStyle=1" parent="o6nMfCskGU3qGilAY7_D-173" vertex="1">
          <mxGeometry x="120" width="70" height="30" as="geometry">
            <mxRectangle width="70" height="30" as="alternateBounds" />
          </mxGeometry>
        </mxCell>
        <mxCell id="o6nMfCskGU3qGilAY7_D-177" value="可用区域" style="shape=partialRectangle;html=1;whiteSpace=wrap;connectable=0;overflow=hidden;fillColor=none;top=0;left=0;bottom=0;right=0;pointerEvents=1;fontFamily=Times New Roman;fontSize=15;" parent="o6nMfCskGU3qGilAY7_D-173" vertex="1">
          <mxGeometry x="190" width="310" height="30" as="geometry">
            <mxRectangle width="310" height="30" as="alternateBounds" />
          </mxGeometry>
        </mxCell>
        <mxCell id="o6nMfCskGU3qGilAY7_D-178" value="" style="shape=tableRow;horizontal=0;startSize=0;swimlaneHead=0;swimlaneBody=0;top=0;left=0;bottom=0;right=0;collapsible=0;dropTarget=0;fillColor=none;points=[[0,0.5],[1,0.5]];portConstraint=eastwest;fontFamily=Times New Roman;fontSize=18;" parent="o6nMfCskGU3qGilAY7_D-102" vertex="1">
          <mxGeometry y="450" width="500" height="30" as="geometry" />
        </mxCell>
        <mxCell id="o6nMfCskGU3qGilAY7_D-179" value="400" style="shape=partialRectangle;html=1;whiteSpace=wrap;connectable=0;overflow=hidden;fillColor=none;top=0;left=0;bottom=0;right=0;pointerEvents=1;fontFamily=Times New Roman;fontSize=16;fontStyle=1" parent="o6nMfCskGU3qGilAY7_D-178" vertex="1">
          <mxGeometry width="60" height="30" as="geometry">
            <mxRectangle width="60" height="30" as="alternateBounds" />
          </mxGeometry>
        </mxCell>
        <mxCell id="o6nMfCskGU3qGilAY7_D-180" value="4FF" style="shape=partialRectangle;html=1;whiteSpace=wrap;connectable=0;overflow=hidden;fillColor=none;top=0;left=0;bottom=0;right=0;pointerEvents=1;fontFamily=Times New Roman;fontSize=16;fontStyle=1" parent="o6nMfCskGU3qGilAY7_D-178" vertex="1">
          <mxGeometry x="60" width="60" height="30" as="geometry">
            <mxRectangle width="60" height="30" as="alternateBounds" />
          </mxGeometry>
        </mxCell>
        <mxCell id="o6nMfCskGU3qGilAY7_D-181" value="256B" style="shape=partialRectangle;html=1;whiteSpace=wrap;connectable=0;overflow=hidden;fillColor=none;top=0;left=0;bottom=0;right=0;pointerEvents=1;fontFamily=Times New Roman;fontSize=16;fontStyle=1" parent="o6nMfCskGU3qGilAY7_D-178" vertex="1">
          <mxGeometry x="120" width="70" height="30" as="geometry">
            <mxRectangle width="70" height="30" as="alternateBounds" />
          </mxGeometry>
        </mxCell>
        <mxCell id="o6nMfCskGU3qGilAY7_D-182" value="BIOS Data Area(BIOS 数据区)" style="shape=partialRectangle;html=1;whiteSpace=wrap;connectable=0;overflow=hidden;fillColor=none;top=0;left=0;bottom=0;right=0;pointerEvents=1;fontFamily=Times New Roman;fontSize=15;" parent="o6nMfCskGU3qGilAY7_D-178" vertex="1">
          <mxGeometry x="190" width="310" height="30" as="geometry">
            <mxRectangle width="310" height="30" as="alternateBounds" />
          </mxGeometry>
        </mxCell>
        <mxCell id="o6nMfCskGU3qGilAY7_D-183" value="" style="shape=tableRow;horizontal=0;startSize=0;swimlaneHead=0;swimlaneBody=0;top=0;left=0;bottom=0;right=0;collapsible=0;dropTarget=0;fillColor=none;points=[[0,0.5],[1,0.5]];portConstraint=eastwest;fontFamily=Times New Roman;fontSize=18;" parent="o6nMfCskGU3qGilAY7_D-102" vertex="1">
          <mxGeometry y="480" width="500" height="30" as="geometry" />
        </mxCell>
        <mxCell id="o6nMfCskGU3qGilAY7_D-184" value="000" style="shape=partialRectangle;html=1;whiteSpace=wrap;connectable=0;overflow=hidden;fillColor=none;top=0;left=0;bottom=0;right=0;pointerEvents=1;fontFamily=Times New Roman;fontSize=16;fontStyle=1" parent="o6nMfCskGU3qGilAY7_D-183" vertex="1">
          <mxGeometry width="60" height="30" as="geometry">
            <mxRectangle width="60" height="30" as="alternateBounds" />
          </mxGeometry>
        </mxCell>
        <mxCell id="o6nMfCskGU3qGilAY7_D-185" value="3FF" style="shape=partialRectangle;html=1;whiteSpace=wrap;connectable=0;overflow=hidden;fillColor=none;top=0;left=0;bottom=0;right=0;pointerEvents=1;fontFamily=Times New Roman;fontSize=16;fontStyle=1" parent="o6nMfCskGU3qGilAY7_D-183" vertex="1">
          <mxGeometry x="60" width="60" height="30" as="geometry">
            <mxRectangle width="60" height="30" as="alternateBounds" />
          </mxGeometry>
        </mxCell>
        <mxCell id="o6nMfCskGU3qGilAY7_D-186" value="1KB" style="shape=partialRectangle;html=1;whiteSpace=wrap;connectable=0;overflow=hidden;fillColor=none;top=0;left=0;bottom=0;right=0;pointerEvents=1;fontFamily=Times New Roman;fontSize=16;fontStyle=1" parent="o6nMfCskGU3qGilAY7_D-183" vertex="1">
          <mxGeometry x="120" width="70" height="30" as="geometry">
            <mxRectangle width="70" height="30" as="alternateBounds" />
          </mxGeometry>
        </mxCell>
        <mxCell id="o6nMfCskGU3qGilAY7_D-187" value="Interrupt Vector Table(中断向量表)" style="shape=partialRectangle;html=1;whiteSpace=wrap;connectable=0;overflow=hidden;fillColor=none;top=0;left=0;bottom=0;right=0;pointerEvents=1;fontFamily=Times New Roman;fontSize=15;" parent="o6nMfCskGU3qGilAY7_D-183" vertex="1">
          <mxGeometry x="190" width="310" height="30" as="geometry">
            <mxRectangle width="310" height="30" as="alternateBounds" />
          </mxGeometry>
        </mxCell>
        <mxCell id="o6nMfCskGU3qGilAY7_D-194" value="段描述符高32位" style="shape=table;startSize=30;container=1;collapsible=0;childLayout=tableLayout;shadow=0;sketch=0;fontFamily=Times New Roman;fontSize=16;strokeColor=#000000;strokeWidth=2;fillColor=#FFD966;gradientColor=none;" parent="1" vertex="1">
          <mxGeometry x="110" y="-3980" width="690" height="90" as="geometry" />
        </mxCell>
        <mxCell id="o6nMfCskGU3qGilAY7_D-195" value="" style="shape=tableRow;horizontal=0;startSize=0;swimlaneHead=0;swimlaneBody=0;top=0;left=0;bottom=0;right=0;collapsible=0;dropTarget=0;fillColor=none;points=[[0,0.5],[1,0.5]];portConstraint=eastwest;shadow=0;sketch=0;fontFamily=Times New Roman;fontSize=16;strokeColor=#000000;strokeWidth=2;" parent="o6nMfCskGU3qGilAY7_D-194" vertex="1">
          <mxGeometry y="30" width="690" height="60" as="geometry" />
        </mxCell>
        <mxCell id="o6nMfCskGU3qGilAY7_D-196" value="段基址&lt;br&gt;31~24" style="shape=partialRectangle;html=1;whiteSpace=wrap;connectable=0;overflow=hidden;fillColor=none;top=0;left=0;bottom=0;right=0;pointerEvents=1;shadow=0;sketch=0;fontFamily=Times New Roman;fontSize=16;strokeColor=#000000;strokeWidth=2;" parent="o6nMfCskGU3qGilAY7_D-195" vertex="1">
          <mxGeometry width="60" height="60" as="geometry">
            <mxRectangle width="60" height="60" as="alternateBounds" />
          </mxGeometry>
        </mxCell>
        <mxCell id="o6nMfCskGU3qGilAY7_D-197" value="G" style="shape=partialRectangle;html=1;whiteSpace=wrap;connectable=0;overflow=hidden;fillColor=none;top=0;left=0;bottom=0;right=0;pointerEvents=1;shadow=0;sketch=0;fontFamily=Times New Roman;fontSize=16;strokeColor=#000000;strokeWidth=2;" parent="o6nMfCskGU3qGilAY7_D-195" vertex="1">
          <mxGeometry x="60" width="60" height="60" as="geometry">
            <mxRectangle width="60" height="60" as="alternateBounds" />
          </mxGeometry>
        </mxCell>
        <mxCell id="o6nMfCskGU3qGilAY7_D-198" value="D/B" style="shape=partialRectangle;html=1;whiteSpace=wrap;connectable=0;overflow=hidden;fillColor=none;top=0;left=0;bottom=0;right=0;pointerEvents=1;shadow=0;sketch=0;fontFamily=Times New Roman;fontSize=16;strokeColor=#000000;strokeWidth=2;" parent="o6nMfCskGU3qGilAY7_D-195" vertex="1">
          <mxGeometry x="120" width="60" height="60" as="geometry">
            <mxRectangle width="60" height="60" as="alternateBounds" />
          </mxGeometry>
        </mxCell>
        <mxCell id="o6nMfCskGU3qGilAY7_D-199" value="L" style="shape=partialRectangle;html=1;whiteSpace=wrap;connectable=0;overflow=hidden;fillColor=none;top=0;left=0;bottom=0;right=0;pointerEvents=1;shadow=0;sketch=0;fontFamily=Times New Roman;fontSize=16;strokeColor=#000000;strokeWidth=2;" parent="o6nMfCskGU3qGilAY7_D-195" vertex="1">
          <mxGeometry x="180" width="60" height="60" as="geometry">
            <mxRectangle width="60" height="60" as="alternateBounds" />
          </mxGeometry>
        </mxCell>
        <mxCell id="o6nMfCskGU3qGilAY7_D-200" value="AVL" style="shape=partialRectangle;html=1;whiteSpace=wrap;connectable=0;overflow=hidden;fillColor=none;top=0;left=0;bottom=0;right=0;pointerEvents=1;shadow=0;sketch=0;fontFamily=Times New Roman;fontSize=16;strokeColor=#000000;strokeWidth=2;" parent="o6nMfCskGU3qGilAY7_D-195" vertex="1">
          <mxGeometry x="240" width="60" height="60" as="geometry">
            <mxRectangle width="60" height="60" as="alternateBounds" />
          </mxGeometry>
        </mxCell>
        <mxCell id="o6nMfCskGU3qGilAY7_D-201" value="段界限&lt;br&gt;19~16" style="shape=partialRectangle;html=1;whiteSpace=wrap;connectable=0;overflow=hidden;fillColor=none;top=0;left=0;bottom=0;right=0;pointerEvents=1;shadow=0;sketch=0;fontFamily=Times New Roman;fontSize=16;strokeColor=#000000;strokeWidth=2;" parent="o6nMfCskGU3qGilAY7_D-195" vertex="1">
          <mxGeometry x="300" width="60" height="60" as="geometry">
            <mxRectangle width="60" height="60" as="alternateBounds" />
          </mxGeometry>
        </mxCell>
        <mxCell id="o6nMfCskGU3qGilAY7_D-202" value="P" style="shape=partialRectangle;html=1;whiteSpace=wrap;connectable=0;overflow=hidden;fillColor=none;top=0;left=0;bottom=0;right=0;pointerEvents=1;shadow=0;sketch=0;fontFamily=Times New Roman;fontSize=16;strokeColor=#000000;strokeWidth=2;" parent="o6nMfCskGU3qGilAY7_D-195" vertex="1">
          <mxGeometry x="360" width="60" height="60" as="geometry">
            <mxRectangle width="60" height="60" as="alternateBounds" />
          </mxGeometry>
        </mxCell>
        <mxCell id="o6nMfCskGU3qGilAY7_D-203" value="DPL" style="shape=partialRectangle;html=1;whiteSpace=wrap;connectable=0;overflow=hidden;fillColor=none;top=0;left=0;bottom=0;right=0;pointerEvents=1;shadow=0;sketch=0;fontFamily=Times New Roman;fontSize=16;strokeColor=#000000;strokeWidth=2;" parent="o6nMfCskGU3qGilAY7_D-195" vertex="1">
          <mxGeometry x="420" width="60" height="60" as="geometry">
            <mxRectangle width="60" height="60" as="alternateBounds" />
          </mxGeometry>
        </mxCell>
        <mxCell id="o6nMfCskGU3qGilAY7_D-204" value="S" style="shape=partialRectangle;html=1;whiteSpace=wrap;connectable=0;overflow=hidden;fillColor=none;top=0;left=0;bottom=0;right=0;pointerEvents=1;shadow=0;sketch=0;fontFamily=Times New Roman;fontSize=16;strokeColor=#000000;strokeWidth=2;" parent="o6nMfCskGU3qGilAY7_D-195" vertex="1">
          <mxGeometry x="480" width="60" height="60" as="geometry">
            <mxRectangle width="60" height="60" as="alternateBounds" />
          </mxGeometry>
        </mxCell>
        <mxCell id="o6nMfCskGU3qGilAY7_D-205" value="TYPE" style="shape=partialRectangle;html=1;whiteSpace=wrap;connectable=0;overflow=hidden;fillColor=none;top=0;left=0;bottom=0;right=0;pointerEvents=1;shadow=0;sketch=0;fontFamily=Times New Roman;fontSize=16;strokeColor=#000000;strokeWidth=2;" parent="o6nMfCskGU3qGilAY7_D-195" vertex="1">
          <mxGeometry x="540" width="60" height="60" as="geometry">
            <mxRectangle width="60" height="60" as="alternateBounds" />
          </mxGeometry>
        </mxCell>
        <mxCell id="o6nMfCskGU3qGilAY7_D-206" value="段基址&lt;br&gt;23~16" style="shape=partialRectangle;html=1;whiteSpace=wrap;connectable=0;overflow=hidden;fillColor=none;top=0;left=0;bottom=0;right=0;pointerEvents=1;shadow=0;sketch=0;fontFamily=Times New Roman;fontSize=16;strokeColor=#000000;strokeWidth=2;" parent="o6nMfCskGU3qGilAY7_D-195" vertex="1">
          <mxGeometry x="600" width="90" height="60" as="geometry">
            <mxRectangle width="90" height="60" as="alternateBounds" />
          </mxGeometry>
        </mxCell>
        <mxCell id="o6nMfCskGU3qGilAY7_D-207" value="段描述符低32位" style="shape=table;startSize=30;container=1;collapsible=0;childLayout=tableLayout;shadow=0;sketch=0;fontFamily=Times New Roman;fontSize=16;strokeColor=#000000;strokeWidth=2;fillColor=#FFD966;gradientColor=none;" parent="1" vertex="1">
          <mxGeometry x="110" y="-3860" width="690" height="80" as="geometry" />
        </mxCell>
        <mxCell id="o6nMfCskGU3qGilAY7_D-208" value="" style="shape=tableRow;horizontal=0;startSize=0;swimlaneHead=0;swimlaneBody=0;top=0;left=0;bottom=0;right=0;collapsible=0;dropTarget=0;fillColor=none;points=[[0,0.5],[1,0.5]];portConstraint=eastwest;shadow=0;sketch=0;fontFamily=Times New Roman;fontSize=16;strokeColor=#000000;strokeWidth=2;" parent="o6nMfCskGU3qGilAY7_D-207" vertex="1">
          <mxGeometry y="30" width="690" height="50" as="geometry" />
        </mxCell>
        <mxCell id="o6nMfCskGU3qGilAY7_D-209" value="段基址15~0" style="shape=partialRectangle;html=1;whiteSpace=wrap;connectable=0;overflow=hidden;fillColor=none;top=0;left=0;bottom=0;right=0;pointerEvents=1;shadow=0;sketch=0;fontFamily=Times New Roman;fontSize=16;strokeColor=#000000;strokeWidth=2;" parent="o6nMfCskGU3qGilAY7_D-208" vertex="1">
          <mxGeometry width="345" height="50" as="geometry">
            <mxRectangle width="345" height="50" as="alternateBounds" />
          </mxGeometry>
        </mxCell>
        <mxCell id="o6nMfCskGU3qGilAY7_D-210" value="段界限15~0" style="shape=partialRectangle;html=1;whiteSpace=wrap;connectable=0;overflow=hidden;fillColor=none;top=0;left=0;bottom=0;right=0;pointerEvents=1;shadow=0;sketch=0;fontFamily=Times New Roman;fontSize=16;strokeColor=#000000;strokeWidth=2;" parent="o6nMfCskGU3qGilAY7_D-208" vertex="1">
          <mxGeometry x="345" width="345" height="50" as="geometry">
            <mxRectangle width="345" height="50" as="alternateBounds" />
          </mxGeometry>
        </mxCell>
        <mxCell id="7SQm9wMSUSITr90rz6Yy-1" value="GDTR寄存器" style="shape=table;startSize=30;container=1;collapsible=0;childLayout=tableLayout;fillColor=#ffe6cc;strokeColor=#d79b00;fontFamily=Times New Roman;fontSize=17;" parent="1" vertex="1">
          <mxGeometry x="110" y="-3730" width="690" height="70" as="geometry" />
        </mxCell>
        <mxCell id="7SQm9wMSUSITr90rz6Yy-2" value="" style="shape=tableRow;horizontal=0;startSize=0;swimlaneHead=0;swimlaneBody=0;top=0;left=0;bottom=0;right=0;collapsible=0;dropTarget=0;fillColor=none;points=[[0,0.5],[1,0.5]];portConstraint=eastwest;" parent="7SQm9wMSUSITr90rz6Yy-1" vertex="1">
          <mxGeometry y="30" width="690" height="40" as="geometry" />
        </mxCell>
        <mxCell id="7SQm9wMSUSITr90rz6Yy-3" value="GDT内存起始地址47~16" style="shape=partialRectangle;html=1;whiteSpace=wrap;connectable=0;overflow=hidden;fillColor=none;top=0;left=0;bottom=0;right=0;pointerEvents=1;fontFamily=Times New Roman;fontSize=17;" parent="7SQm9wMSUSITr90rz6Yy-2" vertex="1">
          <mxGeometry width="345" height="40" as="geometry">
            <mxRectangle width="345" height="40" as="alternateBounds" />
          </mxGeometry>
        </mxCell>
        <mxCell id="7SQm9wMSUSITr90rz6Yy-4" value="GDT界限0~15" style="shape=partialRectangle;html=1;whiteSpace=wrap;connectable=0;overflow=hidden;fillColor=none;top=0;left=0;bottom=0;right=0;pointerEvents=1;fontFamily=Times New Roman;fontSize=17;" parent="7SQm9wMSUSITr90rz6Yy-2" vertex="1">
          <mxGeometry x="345" width="345" height="40" as="geometry">
            <mxRectangle width="345" height="40" as="alternateBounds" />
          </mxGeometry>
        </mxCell>
        <mxCell id="7SQm9wMSUSITr90rz6Yy-5" value="控制寄存器CR0" style="shape=table;startSize=30;container=1;collapsible=0;childLayout=tableLayout;fontFamily=Times New Roman;fontSize=17;fillColor=#e3c800;fontColor=#000000;strokeColor=#B09500;" parent="1" vertex="1">
          <mxGeometry x="110" y="-3490" width="690" height="70" as="geometry" />
        </mxCell>
        <mxCell id="7SQm9wMSUSITr90rz6Yy-6" value="" style="shape=tableRow;horizontal=0;startSize=0;swimlaneHead=0;swimlaneBody=0;top=0;left=0;bottom=0;right=0;collapsible=0;dropTarget=0;fillColor=none;points=[[0,0.5],[1,0.5]];portConstraint=eastwest;fontFamily=Times New Roman;fontSize=17;" parent="7SQm9wMSUSITr90rz6Yy-5" vertex="1">
          <mxGeometry y="30" width="690" height="40" as="geometry" />
        </mxCell>
        <mxCell id="7SQm9wMSUSITr90rz6Yy-7" value="PG" style="shape=partialRectangle;html=1;whiteSpace=wrap;connectable=0;overflow=hidden;fillColor=none;top=0;left=0;bottom=0;right=0;pointerEvents=1;fontFamily=Times New Roman;fontSize=17;" parent="7SQm9wMSUSITr90rz6Yy-6" vertex="1">
          <mxGeometry width="46" height="40" as="geometry">
            <mxRectangle width="46" height="40" as="alternateBounds" />
          </mxGeometry>
        </mxCell>
        <mxCell id="7SQm9wMSUSITr90rz6Yy-8" value="CD" style="shape=partialRectangle;html=1;whiteSpace=wrap;connectable=0;overflow=hidden;fillColor=none;top=0;left=0;bottom=0;right=0;pointerEvents=1;fontFamily=Times New Roman;fontSize=17;" parent="7SQm9wMSUSITr90rz6Yy-6" vertex="1">
          <mxGeometry x="46" width="46" height="40" as="geometry">
            <mxRectangle width="46" height="40" as="alternateBounds" />
          </mxGeometry>
        </mxCell>
        <mxCell id="7SQm9wMSUSITr90rz6Yy-9" value="NW" style="shape=partialRectangle;html=1;whiteSpace=wrap;connectable=0;overflow=hidden;fillColor=none;top=0;left=0;bottom=0;right=0;pointerEvents=1;fontFamily=Times New Roman;fontSize=17;" parent="7SQm9wMSUSITr90rz6Yy-6" vertex="1">
          <mxGeometry x="92" width="46" height="40" as="geometry">
            <mxRectangle width="46" height="40" as="alternateBounds" />
          </mxGeometry>
        </mxCell>
        <mxCell id="7SQm9wMSUSITr90rz6Yy-10" value="" style="shape=partialRectangle;html=1;whiteSpace=wrap;connectable=0;overflow=hidden;top=0;left=0;bottom=0;right=0;pointerEvents=1;fontFamily=Times New Roman;fontSize=17;" parent="7SQm9wMSUSITr90rz6Yy-6" vertex="1">
          <mxGeometry x="138" width="72" height="40" as="geometry">
            <mxRectangle width="72" height="40" as="alternateBounds" />
          </mxGeometry>
        </mxCell>
        <mxCell id="7SQm9wMSUSITr90rz6Yy-11" value="AM" style="shape=partialRectangle;html=1;whiteSpace=wrap;connectable=0;overflow=hidden;fillColor=none;top=0;left=0;bottom=0;right=0;pointerEvents=1;fontFamily=Times New Roman;fontSize=17;" parent="7SQm9wMSUSITr90rz6Yy-6" vertex="1">
          <mxGeometry x="210" width="40" height="40" as="geometry">
            <mxRectangle width="40" height="40" as="alternateBounds" />
          </mxGeometry>
        </mxCell>
        <mxCell id="7SQm9wMSUSITr90rz6Yy-37" style="shape=partialRectangle;html=1;whiteSpace=wrap;connectable=0;overflow=hidden;top=0;left=0;bottom=0;right=0;pointerEvents=1;fontFamily=Times New Roman;fontSize=17;" parent="7SQm9wMSUSITr90rz6Yy-6" vertex="1">
          <mxGeometry x="250" width="26" height="40" as="geometry">
            <mxRectangle width="26" height="40" as="alternateBounds" />
          </mxGeometry>
        </mxCell>
        <mxCell id="7SQm9wMSUSITr90rz6Yy-12" value="WP" style="shape=partialRectangle;html=1;whiteSpace=wrap;connectable=0;overflow=hidden;fillColor=none;top=0;left=0;bottom=0;right=0;pointerEvents=1;fontFamily=Times New Roman;fontSize=17;" parent="7SQm9wMSUSITr90rz6Yy-6" vertex="1">
          <mxGeometry x="276" width="47" height="40" as="geometry">
            <mxRectangle width="47" height="40" as="alternateBounds" />
          </mxGeometry>
        </mxCell>
        <mxCell id="7SQm9wMSUSITr90rz6Yy-13" value="" style="shape=partialRectangle;html=1;whiteSpace=wrap;connectable=0;overflow=hidden;top=0;left=0;bottom=0;right=0;pointerEvents=1;fontFamily=Times New Roman;fontSize=17;" parent="7SQm9wMSUSITr90rz6Yy-6" vertex="1">
          <mxGeometry x="323" width="97" height="40" as="geometry">
            <mxRectangle width="97" height="40" as="alternateBounds" />
          </mxGeometry>
        </mxCell>
        <mxCell id="7SQm9wMSUSITr90rz6Yy-14" value="NE" style="shape=partialRectangle;html=1;whiteSpace=wrap;connectable=0;overflow=hidden;fillColor=none;top=0;left=0;bottom=0;right=0;pointerEvents=1;fontFamily=Times New Roman;fontSize=17;" parent="7SQm9wMSUSITr90rz6Yy-6" vertex="1">
          <mxGeometry x="420" width="40" height="40" as="geometry">
            <mxRectangle width="40" height="40" as="alternateBounds" />
          </mxGeometry>
        </mxCell>
        <mxCell id="7SQm9wMSUSITr90rz6Yy-15" value="ET" style="shape=partialRectangle;html=1;whiteSpace=wrap;connectable=0;overflow=hidden;fillColor=none;top=0;left=0;bottom=0;right=0;pointerEvents=1;fontFamily=Times New Roman;fontSize=17;" parent="7SQm9wMSUSITr90rz6Yy-6" vertex="1">
          <mxGeometry x="460" width="40" height="40" as="geometry">
            <mxRectangle width="40" height="40" as="alternateBounds" />
          </mxGeometry>
        </mxCell>
        <mxCell id="7SQm9wMSUSITr90rz6Yy-16" value="TS" style="shape=partialRectangle;html=1;whiteSpace=wrap;connectable=0;overflow=hidden;fillColor=none;top=0;left=0;bottom=0;right=0;pointerEvents=1;fontFamily=Times New Roman;fontSize=17;" parent="7SQm9wMSUSITr90rz6Yy-6" vertex="1">
          <mxGeometry x="500" width="40" height="40" as="geometry">
            <mxRectangle width="40" height="40" as="alternateBounds" />
          </mxGeometry>
        </mxCell>
        <mxCell id="7SQm9wMSUSITr90rz6Yy-17" value="EM" style="shape=partialRectangle;html=1;whiteSpace=wrap;connectable=0;overflow=hidden;fillColor=none;top=0;left=0;bottom=0;right=0;pointerEvents=1;fontFamily=Times New Roman;fontSize=17;" parent="7SQm9wMSUSITr90rz6Yy-6" vertex="1">
          <mxGeometry x="540" width="40" height="40" as="geometry">
            <mxRectangle width="40" height="40" as="alternateBounds" />
          </mxGeometry>
        </mxCell>
        <mxCell id="7SQm9wMSUSITr90rz6Yy-18" value="MP" style="shape=partialRectangle;html=1;whiteSpace=wrap;connectable=0;overflow=hidden;fillColor=none;top=0;left=0;bottom=0;right=0;pointerEvents=1;fontFamily=Times New Roman;fontSize=17;" parent="7SQm9wMSUSITr90rz6Yy-6" vertex="1">
          <mxGeometry x="580" width="44" height="40" as="geometry">
            <mxRectangle width="44" height="40" as="alternateBounds" />
          </mxGeometry>
        </mxCell>
        <mxCell id="7SQm9wMSUSITr90rz6Yy-19" value="&lt;div style=&quot;text-align: left&quot;&gt;&lt;span style=&quot;font-size: 16px&quot;&gt;&lt;font face=&quot;宋体&quot;&gt;PE&lt;/font&gt;&lt;/span&gt;&lt;/div&gt;" style="shape=partialRectangle;html=1;whiteSpace=wrap;connectable=0;overflow=hidden;fillColor=none;top=0;left=0;bottom=0;right=0;pointerEvents=1;fontFamily=Times New Roman;fontSize=17;rowspan=1;colspan=2;" parent="7SQm9wMSUSITr90rz6Yy-6" vertex="1">
          <mxGeometry x="624" width="66" height="40" as="geometry">
            <mxRectangle width="20" height="40" as="alternateBounds" />
          </mxGeometry>
        </mxCell>
        <mxCell id="7SQm9wMSUSITr90rz6Yy-20" value="PE" style="shape=partialRectangle;html=1;whiteSpace=wrap;connectable=0;overflow=hidden;fillColor=none;top=0;left=0;bottom=0;right=0;pointerEvents=1;fontFamily=Times New Roman;fontSize=17;" parent="7SQm9wMSUSITr90rz6Yy-6" vertex="1" visible="0">
          <mxGeometry x="644" width="46" height="40" as="geometry">
            <mxRectangle width="46" height="40" as="alternateBounds" />
          </mxGeometry>
        </mxCell>
        <mxCell id="7SQm9wMSUSITr90rz6Yy-38" value="保护模式下的物理内存布局" style="shape=table;startSize=30;container=1;collapsible=0;childLayout=tableLayout;fontFamily=Times New Roman;fontSize=18;fontStyle=1;strokeColor=default;strokeWidth=2;fillColor=default;top=1;" parent="1" vertex="1">
          <mxGeometry x="1080" y="-4570" width="570" height="1120" as="geometry" />
        </mxCell>
        <mxCell id="7SQm9wMSUSITr90rz6Yy-39" value="" style="shape=tableRow;horizontal=0;startSize=0;swimlaneHead=0;swimlaneBody=0;top=0;left=0;bottom=0;right=0;collapsible=0;dropTarget=0;fillColor=none;points=[[0,0.5],[1,0.5]];portConstraint=eastwest;fontFamily=Times New Roman;fontSize=18;" parent="7SQm9wMSUSITr90rz6Yy-38" vertex="1">
          <mxGeometry y="30" width="570" height="30" as="geometry" />
        </mxCell>
        <mxCell id="7SQm9wMSUSITr90rz6Yy-40" value="起始" style="shape=partialRectangle;html=1;whiteSpace=wrap;connectable=0;overflow=hidden;fillColor=none;top=0;left=0;bottom=0;right=0;pointerEvents=1;fontFamily=Times New Roman;fontSize=16;fontStyle=1" parent="7SQm9wMSUSITr90rz6Yy-39" vertex="1">
          <mxGeometry width="70" height="30" as="geometry">
            <mxRectangle width="70" height="30" as="alternateBounds" />
          </mxGeometry>
        </mxCell>
        <mxCell id="7SQm9wMSUSITr90rz6Yy-41" value="结束" style="shape=partialRectangle;html=1;whiteSpace=wrap;connectable=0;overflow=hidden;fillColor=none;top=0;left=0;bottom=0;right=0;pointerEvents=1;fontFamily=Times New Roman;fontSize=16;fontStyle=1" parent="7SQm9wMSUSITr90rz6Yy-39" vertex="1">
          <mxGeometry x="70" width="90" height="30" as="geometry">
            <mxRectangle width="90" height="30" as="alternateBounds" />
          </mxGeometry>
        </mxCell>
        <mxCell id="7SQm9wMSUSITr90rz6Yy-42" value="大小" style="shape=partialRectangle;html=1;whiteSpace=wrap;connectable=0;overflow=hidden;fillColor=none;top=0;left=0;bottom=0;right=0;pointerEvents=1;fontFamily=Times New Roman;fontSize=16;fontStyle=1" parent="7SQm9wMSUSITr90rz6Yy-39" vertex="1">
          <mxGeometry x="160" width="60" height="30" as="geometry">
            <mxRectangle width="60" height="30" as="alternateBounds" />
          </mxGeometry>
        </mxCell>
        <mxCell id="7SQm9wMSUSITr90rz6Yy-43" value="&lt;font style=&quot;font-size: 18px;&quot;&gt;用途&lt;/font&gt;" style="shape=partialRectangle;html=1;whiteSpace=wrap;connectable=0;overflow=hidden;fillColor=none;top=0;left=0;bottom=0;right=0;pointerEvents=1;fontFamily=Times New Roman;fontSize=18;fontStyle=1" parent="7SQm9wMSUSITr90rz6Yy-39" vertex="1">
          <mxGeometry x="220" width="350" height="30" as="geometry">
            <mxRectangle width="350" height="30" as="alternateBounds" />
          </mxGeometry>
        </mxCell>
        <mxCell id="ehd0csxChEnp2E-2lRP0-110" style="shape=tableRow;horizontal=0;startSize=0;swimlaneHead=0;swimlaneBody=0;top=0;left=0;bottom=0;right=0;collapsible=0;dropTarget=0;fillColor=#1ba1e2;points=[[0,0.5],[1,0.5]];portConstraint=eastwest;fontFamily=Times New Roman;fontSize=18;align=left;strokeColor=#006EAF;fontColor=#ffffff;" vertex="1" parent="7SQm9wMSUSITr90rz6Yy-38">
          <mxGeometry y="60" width="570" height="40" as="geometry" />
        </mxCell>
        <mxCell id="ehd0csxChEnp2E-2lRP0-111" value="0x200000" style="shape=partialRectangle;html=1;whiteSpace=wrap;connectable=0;overflow=hidden;fillColor=#1ba1e2;top=1;left=1;bottom=1;right=1;pointerEvents=1;fontFamily=Times New Roman;fontSize=16;fontStyle=1;strokeColor=#006EAF;fontColor=#ffffff;" vertex="1" parent="ehd0csxChEnp2E-2lRP0-110">
          <mxGeometry width="70" height="40" as="geometry">
            <mxRectangle width="70" height="40" as="alternateBounds" />
          </mxGeometry>
        </mxCell>
        <mxCell id="ehd0csxChEnp2E-2lRP0-112" value="0x1FFFFFF" style="shape=partialRectangle;html=1;whiteSpace=wrap;connectable=0;overflow=hidden;fillColor=#1ba1e2;top=1;left=1;bottom=1;right=1;pointerEvents=1;fontFamily=Times New Roman;fontSize=16;fontStyle=1;strokeColor=#006EAF;fontColor=#ffffff;" vertex="1" parent="ehd0csxChEnp2E-2lRP0-110">
          <mxGeometry x="70" width="90" height="40" as="geometry">
            <mxRectangle width="90" height="40" as="alternateBounds" />
          </mxGeometry>
        </mxCell>
        <mxCell id="ehd0csxChEnp2E-2lRP0-113" value="30MB" style="shape=partialRectangle;html=1;whiteSpace=wrap;connectable=0;overflow=hidden;fillColor=#1ba1e2;top=1;left=1;bottom=1;right=1;pointerEvents=1;fontFamily=Times New Roman;fontSize=16;fontStyle=1;strokeColor=#006EAF;fontColor=#ffffff;" vertex="1" parent="ehd0csxChEnp2E-2lRP0-110">
          <mxGeometry x="160" width="60" height="40" as="geometry">
            <mxRectangle width="60" height="40" as="alternateBounds" />
          </mxGeometry>
        </mxCell>
        <mxCell id="ehd0csxChEnp2E-2lRP0-114" value="可用空间" style="shape=partialRectangle;html=1;whiteSpace=wrap;connectable=0;overflow=hidden;fillColor=#1ba1e2;top=1;left=1;bottom=1;right=1;pointerEvents=1;fontFamily=Times New Roman;fontSize=13;strokeColor=#006EAF;align=center;fontColor=#ffffff;" vertex="1" parent="ehd0csxChEnp2E-2lRP0-110">
          <mxGeometry x="220" width="350" height="40" as="geometry">
            <mxRectangle width="350" height="40" as="alternateBounds" />
          </mxGeometry>
        </mxCell>
        <mxCell id="ehd0csxChEnp2E-2lRP0-100" style="shape=tableRow;horizontal=0;startSize=0;swimlaneHead=0;swimlaneBody=0;top=0;left=0;bottom=0;right=0;collapsible=0;dropTarget=0;fillColor=none;points=[[0,0.5],[1,0.5]];portConstraint=eastwest;fontFamily=Times New Roman;fontSize=18;align=left;" vertex="1" parent="7SQm9wMSUSITr90rz6Yy-38">
          <mxGeometry y="100" width="570" height="40" as="geometry" />
        </mxCell>
        <mxCell id="ehd0csxChEnp2E-2lRP0-101" value="0x1FF000" style="shape=partialRectangle;html=1;whiteSpace=wrap;connectable=0;overflow=hidden;fillColor=#d5e8d4;top=1;left=1;bottom=1;right=1;pointerEvents=1;fontFamily=Times New Roman;fontSize=16;fontStyle=1;strokeColor=#82b366;" vertex="1" parent="ehd0csxChEnp2E-2lRP0-100">
          <mxGeometry width="70" height="40" as="geometry">
            <mxRectangle width="70" height="40" as="alternateBounds" />
          </mxGeometry>
        </mxCell>
        <mxCell id="ehd0csxChEnp2E-2lRP0-102" value="0x1FFFFF" style="shape=partialRectangle;html=1;whiteSpace=wrap;connectable=0;overflow=hidden;fillColor=#d5e8d4;top=1;left=1;bottom=1;right=1;pointerEvents=1;fontFamily=Times New Roman;fontSize=16;fontStyle=1;strokeColor=#82b366;" vertex="1" parent="ehd0csxChEnp2E-2lRP0-100">
          <mxGeometry x="70" width="90" height="40" as="geometry">
            <mxRectangle width="90" height="40" as="alternateBounds" />
          </mxGeometry>
        </mxCell>
        <mxCell id="ehd0csxChEnp2E-2lRP0-103" value="4KB" style="shape=partialRectangle;html=1;whiteSpace=wrap;connectable=0;overflow=hidden;fillColor=#d5e8d4;top=1;left=1;bottom=1;right=1;pointerEvents=1;fontFamily=Times New Roman;fontSize=16;fontStyle=1;strokeColor=#82b366;" vertex="1" parent="ehd0csxChEnp2E-2lRP0-100">
          <mxGeometry x="160" width="60" height="40" as="geometry">
            <mxRectangle width="60" height="40" as="alternateBounds" />
          </mxGeometry>
        </mxCell>
        <mxCell id="ehd0csxChEnp2E-2lRP0-104" value="第254个页表，第1022个页目录项指向这个页表，但是没有将物理地址分配给任何页表项" style="shape=partialRectangle;html=1;whiteSpace=wrap;connectable=0;overflow=hidden;fillColor=#d5e8d4;top=1;left=1;bottom=1;right=1;pointerEvents=1;fontFamily=Times New Roman;fontSize=13;strokeColor=#82b366;align=left;" vertex="1" parent="ehd0csxChEnp2E-2lRP0-100">
          <mxGeometry x="220" width="350" height="40" as="geometry">
            <mxRectangle width="350" height="40" as="alternateBounds" />
          </mxGeometry>
        </mxCell>
        <mxCell id="ehd0csxChEnp2E-2lRP0-105" style="shape=tableRow;horizontal=0;startSize=0;swimlaneHead=0;swimlaneBody=0;top=0;left=0;bottom=0;right=0;collapsible=0;dropTarget=0;fillColor=none;points=[[0,0.5],[1,0.5]];portConstraint=eastwest;fontFamily=Times New Roman;fontSize=18;align=left;" vertex="1" parent="7SQm9wMSUSITr90rz6Yy-38">
          <mxGeometry y="140" width="570" height="40" as="geometry" />
        </mxCell>
        <mxCell id="ehd0csxChEnp2E-2lRP0-106" value="...." style="shape=partialRectangle;html=1;whiteSpace=wrap;connectable=0;overflow=hidden;fillColor=#d5e8d4;top=1;left=1;bottom=1;right=1;pointerEvents=1;fontFamily=Times New Roman;fontSize=16;fontStyle=1;strokeColor=#82b366;rowspan=1;colspan=4;" vertex="1" parent="ehd0csxChEnp2E-2lRP0-105">
          <mxGeometry width="570" height="40" as="geometry">
            <mxRectangle width="70" height="40" as="alternateBounds" />
          </mxGeometry>
        </mxCell>
        <mxCell id="ehd0csxChEnp2E-2lRP0-107" style="shape=partialRectangle;html=1;whiteSpace=wrap;connectable=0;overflow=hidden;fillColor=#d5e8d4;top=1;left=1;bottom=1;right=1;pointerEvents=1;fontFamily=Times New Roman;fontSize=16;fontStyle=1;strokeColor=#82b366;" vertex="1" visible="0" parent="ehd0csxChEnp2E-2lRP0-105">
          <mxGeometry x="70" width="90" height="40" as="geometry">
            <mxRectangle width="90" height="40" as="alternateBounds" />
          </mxGeometry>
        </mxCell>
        <mxCell id="ehd0csxChEnp2E-2lRP0-108" style="shape=partialRectangle;html=1;whiteSpace=wrap;connectable=0;overflow=hidden;fillColor=#d5e8d4;top=1;left=1;bottom=1;right=1;pointerEvents=1;fontFamily=Times New Roman;fontSize=16;fontStyle=1;strokeColor=#82b366;" vertex="1" visible="0" parent="ehd0csxChEnp2E-2lRP0-105">
          <mxGeometry x="160" width="60" height="40" as="geometry">
            <mxRectangle width="60" height="40" as="alternateBounds" />
          </mxGeometry>
        </mxCell>
        <mxCell id="ehd0csxChEnp2E-2lRP0-109" style="shape=partialRectangle;html=1;whiteSpace=wrap;connectable=0;overflow=hidden;fillColor=#d5e8d4;top=1;left=1;bottom=1;right=1;pointerEvents=1;fontFamily=Times New Roman;fontSize=13;strokeColor=#82b366;align=left;" vertex="1" visible="0" parent="ehd0csxChEnp2E-2lRP0-105">
          <mxGeometry x="220" width="350" height="40" as="geometry">
            <mxRectangle width="350" height="40" as="alternateBounds" />
          </mxGeometry>
        </mxCell>
        <mxCell id="ehd0csxChEnp2E-2lRP0-90" style="shape=tableRow;horizontal=0;startSize=0;swimlaneHead=0;swimlaneBody=0;top=0;left=0;bottom=0;right=0;collapsible=0;dropTarget=0;fillColor=none;points=[[0,0.5],[1,0.5]];portConstraint=eastwest;fontFamily=Times New Roman;fontSize=18;align=left;" vertex="1" parent="7SQm9wMSUSITr90rz6Yy-38">
          <mxGeometry y="180" width="570" height="40" as="geometry" />
        </mxCell>
        <mxCell id="ehd0csxChEnp2E-2lRP0-91" value="0x103000" style="shape=partialRectangle;html=1;whiteSpace=wrap;connectable=0;overflow=hidden;fillColor=#d5e8d4;top=1;left=1;bottom=1;right=1;pointerEvents=1;fontFamily=Times New Roman;fontSize=16;fontStyle=1;strokeColor=#82b366;" vertex="1" parent="ehd0csxChEnp2E-2lRP0-90">
          <mxGeometry width="70" height="40" as="geometry">
            <mxRectangle width="70" height="40" as="alternateBounds" />
          </mxGeometry>
        </mxCell>
        <mxCell id="ehd0csxChEnp2E-2lRP0-92" value="0x103FFF" style="shape=partialRectangle;html=1;whiteSpace=wrap;connectable=0;overflow=hidden;fillColor=#d5e8d4;top=1;left=1;bottom=1;right=1;pointerEvents=1;fontFamily=Times New Roman;fontSize=16;fontStyle=1;strokeColor=#82b366;" vertex="1" parent="ehd0csxChEnp2E-2lRP0-90">
          <mxGeometry x="70" width="90" height="40" as="geometry">
            <mxRectangle width="90" height="40" as="alternateBounds" />
          </mxGeometry>
        </mxCell>
        <mxCell id="ehd0csxChEnp2E-2lRP0-93" value="4KB" style="shape=partialRectangle;html=1;whiteSpace=wrap;connectable=0;overflow=hidden;fillColor=#d5e8d4;top=1;left=1;bottom=1;right=1;pointerEvents=1;fontFamily=Times New Roman;fontSize=16;fontStyle=1;strokeColor=#82b366;" vertex="1" parent="ehd0csxChEnp2E-2lRP0-90">
          <mxGeometry x="160" width="60" height="40" as="geometry">
            <mxRectangle width="60" height="40" as="alternateBounds" />
          </mxGeometry>
        </mxCell>
        <mxCell id="ehd0csxChEnp2E-2lRP0-94" value="&lt;span&gt;第2个页表，第770个页目录项指向这个页表，但是没有将物理地址分配给任何页表项&lt;/span&gt;" style="shape=partialRectangle;html=1;whiteSpace=wrap;connectable=0;overflow=hidden;fillColor=#d5e8d4;top=1;left=1;bottom=1;right=1;pointerEvents=1;fontFamily=Times New Roman;fontSize=13;strokeColor=#82b366;align=left;" vertex="1" parent="ehd0csxChEnp2E-2lRP0-90">
          <mxGeometry x="220" width="350" height="40" as="geometry">
            <mxRectangle width="350" height="40" as="alternateBounds" />
          </mxGeometry>
        </mxCell>
        <mxCell id="ehd0csxChEnp2E-2lRP0-85" style="shape=tableRow;horizontal=0;startSize=0;swimlaneHead=0;swimlaneBody=0;top=0;left=0;bottom=0;right=0;collapsible=0;dropTarget=0;fillColor=none;points=[[0,0.5],[1,0.5]];portConstraint=eastwest;fontFamily=Times New Roman;fontSize=18;align=left;" vertex="1" parent="7SQm9wMSUSITr90rz6Yy-38">
          <mxGeometry y="220" width="570" height="40" as="geometry" />
        </mxCell>
        <mxCell id="ehd0csxChEnp2E-2lRP0-86" value="0x102000" style="shape=partialRectangle;html=1;whiteSpace=wrap;connectable=0;overflow=hidden;fillColor=#d5e8d4;top=1;left=1;bottom=1;right=1;pointerEvents=1;fontFamily=Times New Roman;fontSize=16;fontStyle=1;strokeColor=#82b366;" vertex="1" parent="ehd0csxChEnp2E-2lRP0-85">
          <mxGeometry width="70" height="40" as="geometry">
            <mxRectangle width="70" height="40" as="alternateBounds" />
          </mxGeometry>
        </mxCell>
        <mxCell id="ehd0csxChEnp2E-2lRP0-87" value="0x102FFF" style="shape=partialRectangle;html=1;whiteSpace=wrap;connectable=0;overflow=hidden;fillColor=#d5e8d4;top=1;left=1;bottom=1;right=1;pointerEvents=1;fontFamily=Times New Roman;fontSize=16;fontStyle=1;strokeColor=#82b366;" vertex="1" parent="ehd0csxChEnp2E-2lRP0-85">
          <mxGeometry x="70" width="90" height="40" as="geometry">
            <mxRectangle width="90" height="40" as="alternateBounds" />
          </mxGeometry>
        </mxCell>
        <mxCell id="ehd0csxChEnp2E-2lRP0-88" value="4KB" style="shape=partialRectangle;html=1;whiteSpace=wrap;connectable=0;overflow=hidden;fillColor=#d5e8d4;top=1;left=1;bottom=1;right=1;pointerEvents=1;fontFamily=Times New Roman;fontSize=16;fontStyle=1;strokeColor=#82b366;" vertex="1" parent="ehd0csxChEnp2E-2lRP0-85">
          <mxGeometry x="160" width="60" height="40" as="geometry">
            <mxRectangle width="60" height="40" as="alternateBounds" />
          </mxGeometry>
        </mxCell>
        <mxCell id="ehd0csxChEnp2E-2lRP0-89" value="第1个页表，第769个页目录项指向这个页表，但是没有将物理地址分配给任何页表项" style="shape=partialRectangle;html=1;whiteSpace=wrap;connectable=0;overflow=hidden;fillColor=#d5e8d4;top=1;left=1;bottom=1;right=1;pointerEvents=1;fontFamily=Times New Roman;fontSize=13;strokeColor=#82b366;align=left;" vertex="1" parent="ehd0csxChEnp2E-2lRP0-85">
          <mxGeometry x="220" width="350" height="40" as="geometry">
            <mxRectangle width="350" height="40" as="alternateBounds" />
          </mxGeometry>
        </mxCell>
        <mxCell id="ehd0csxChEnp2E-2lRP0-80" style="shape=tableRow;horizontal=0;startSize=0;swimlaneHead=0;swimlaneBody=0;top=0;left=0;bottom=0;right=0;collapsible=0;dropTarget=0;fillColor=none;points=[[0,0.5],[1,0.5]];portConstraint=eastwest;fontFamily=Times New Roman;fontSize=18;align=left;" vertex="1" parent="7SQm9wMSUSITr90rz6Yy-38">
          <mxGeometry y="260" width="570" height="50" as="geometry" />
        </mxCell>
        <mxCell id="ehd0csxChEnp2E-2lRP0-81" value="0x101000" style="shape=partialRectangle;html=1;whiteSpace=wrap;connectable=0;overflow=hidden;fillColor=#d5e8d4;top=1;left=1;bottom=1;right=1;pointerEvents=1;fontFamily=Times New Roman;fontSize=16;fontStyle=1;strokeColor=#82b366;" vertex="1" parent="ehd0csxChEnp2E-2lRP0-80">
          <mxGeometry width="70" height="50" as="geometry">
            <mxRectangle width="70" height="50" as="alternateBounds" />
          </mxGeometry>
        </mxCell>
        <mxCell id="ehd0csxChEnp2E-2lRP0-82" value="0x101FFF" style="shape=partialRectangle;html=1;whiteSpace=wrap;connectable=0;overflow=hidden;fillColor=#d5e8d4;top=1;left=1;bottom=1;right=1;pointerEvents=1;fontFamily=Times New Roman;fontSize=16;fontStyle=1;strokeColor=#82b366;" vertex="1" parent="ehd0csxChEnp2E-2lRP0-80">
          <mxGeometry x="70" width="90" height="50" as="geometry">
            <mxRectangle width="90" height="50" as="alternateBounds" />
          </mxGeometry>
        </mxCell>
        <mxCell id="ehd0csxChEnp2E-2lRP0-83" value="4KB" style="shape=partialRectangle;html=1;whiteSpace=wrap;connectable=0;overflow=hidden;fillColor=#d5e8d4;top=1;left=1;bottom=1;right=1;pointerEvents=1;fontFamily=Times New Roman;fontSize=16;fontStyle=1;strokeColor=#82b366;" vertex="1" parent="ehd0csxChEnp2E-2lRP0-80">
          <mxGeometry x="160" width="60" height="50" as="geometry">
            <mxRectangle width="60" height="50" as="alternateBounds" />
          </mxGeometry>
        </mxCell>
        <mxCell id="ehd0csxChEnp2E-2lRP0-84" value="&lt;font color=&quot;#ff0000&quot;&gt;第0个页表，&lt;/font&gt;将物理地址的低1MB空间分配给了前256个页表项，也就是说虚拟地址的0x00000000~0x000fffff和0xc0000000~0xc00fffff对应物理地址的低1MB" style="shape=partialRectangle;html=1;whiteSpace=wrap;connectable=0;overflow=hidden;fillColor=#d5e8d4;top=1;left=1;bottom=1;right=1;pointerEvents=1;fontFamily=Times New Roman;fontSize=13;strokeColor=#82b366;align=left;" vertex="1" parent="ehd0csxChEnp2E-2lRP0-80">
          <mxGeometry x="220" width="350" height="50" as="geometry">
            <mxRectangle width="350" height="50" as="alternateBounds" />
          </mxGeometry>
        </mxCell>
        <mxCell id="ehd0csxChEnp2E-2lRP0-75" style="shape=tableRow;horizontal=0;startSize=0;swimlaneHead=0;swimlaneBody=0;top=0;left=0;bottom=0;right=0;collapsible=0;dropTarget=0;fillColor=none;points=[[0,0.5],[1,0.5]];portConstraint=eastwest;fontFamily=Times New Roman;fontSize=18;" vertex="1" parent="7SQm9wMSUSITr90rz6Yy-38">
          <mxGeometry y="310" width="570" height="90" as="geometry" />
        </mxCell>
        <mxCell id="ehd0csxChEnp2E-2lRP0-76" value="0x100000" style="shape=partialRectangle;html=1;whiteSpace=wrap;connectable=0;overflow=hidden;fillColor=#d5e8d4;top=1;left=1;bottom=1;right=1;pointerEvents=1;fontFamily=Times New Roman;fontSize=16;fontStyle=1;strokeColor=#82b366;" vertex="1" parent="ehd0csxChEnp2E-2lRP0-75">
          <mxGeometry width="70" height="90" as="geometry">
            <mxRectangle width="70" height="90" as="alternateBounds" />
          </mxGeometry>
        </mxCell>
        <mxCell id="ehd0csxChEnp2E-2lRP0-77" value="0x100FFF" style="shape=partialRectangle;html=1;whiteSpace=wrap;connectable=0;overflow=hidden;fillColor=#d5e8d4;top=1;left=1;bottom=1;right=1;pointerEvents=1;fontFamily=Times New Roman;fontSize=16;fontStyle=1;strokeColor=#82b366;" vertex="1" parent="ehd0csxChEnp2E-2lRP0-75">
          <mxGeometry x="70" width="90" height="90" as="geometry">
            <mxRectangle width="90" height="90" as="alternateBounds" />
          </mxGeometry>
        </mxCell>
        <mxCell id="ehd0csxChEnp2E-2lRP0-78" value="4KB" style="shape=partialRectangle;html=1;whiteSpace=wrap;connectable=0;overflow=hidden;fillColor=#d5e8d4;top=1;left=1;bottom=1;right=1;pointerEvents=1;fontFamily=Times New Roman;fontSize=16;fontStyle=1;strokeColor=#82b366;" vertex="1" parent="ehd0csxChEnp2E-2lRP0-75">
          <mxGeometry x="160" width="60" height="90" as="geometry">
            <mxRectangle width="60" height="90" as="alternateBounds" />
          </mxGeometry>
        </mxCell>
        <mxCell id="ehd0csxChEnp2E-2lRP0-79" value="&lt;font color=&quot;#ff0000&quot;&gt;页目录表，&lt;/font&gt;第一个页表的地址存在页目录项0和页目录项0xc00，每个页表表示4MB的空间。0xc00个以上的目录项代表的虚拟顶部1G空间给内核，低3G给用户；最后一个页目录项里保存了页目录表自身的物理地址；c00~ffe个目录项指向上方的第0个到第254个页表" style="shape=partialRectangle;html=1;whiteSpace=wrap;connectable=0;overflow=hidden;fillColor=#d5e8d4;top=1;left=1;bottom=1;right=1;pointerEvents=1;fontFamily=Times New Roman;fontSize=13;strokeColor=#82b366;align=left;" vertex="1" parent="ehd0csxChEnp2E-2lRP0-75">
          <mxGeometry x="220" width="350" height="90" as="geometry">
            <mxRectangle width="350" height="90" as="alternateBounds" />
          </mxGeometry>
        </mxCell>
        <mxCell id="7SQm9wMSUSITr90rz6Yy-44" value="" style="shape=tableRow;horizontal=0;startSize=0;swimlaneHead=0;swimlaneBody=0;top=0;left=0;bottom=0;right=0;collapsible=0;dropTarget=0;fillColor=none;points=[[0,0.5],[1,0.5]];portConstraint=eastwest;fontFamily=Times New Roman;fontSize=18;" parent="7SQm9wMSUSITr90rz6Yy-38" vertex="1">
          <mxGeometry y="400" width="570" height="30" as="geometry" />
        </mxCell>
        <mxCell id="7SQm9wMSUSITr90rz6Yy-45" value="FFFF0" style="shape=partialRectangle;html=1;whiteSpace=wrap;connectable=0;overflow=hidden;fillColor=#ffe6cc;top=1;left=1;bottom=1;right=1;pointerEvents=1;fontFamily=Times New Roman;fontSize=16;fontStyle=1;strokeColor=#000000;" parent="7SQm9wMSUSITr90rz6Yy-44" vertex="1">
          <mxGeometry width="70" height="30" as="geometry">
            <mxRectangle width="70" height="30" as="alternateBounds" />
          </mxGeometry>
        </mxCell>
        <mxCell id="7SQm9wMSUSITr90rz6Yy-46" value="FFFFF" style="shape=partialRectangle;html=1;whiteSpace=wrap;connectable=0;overflow=hidden;fillColor=#ffe6cc;top=1;left=1;bottom=1;right=1;pointerEvents=1;fontFamily=Times New Roman;fontSize=16;fontStyle=1;strokeColor=#000000;" parent="7SQm9wMSUSITr90rz6Yy-44" vertex="1">
          <mxGeometry x="70" width="90" height="30" as="geometry">
            <mxRectangle width="90" height="30" as="alternateBounds" />
          </mxGeometry>
        </mxCell>
        <mxCell id="7SQm9wMSUSITr90rz6Yy-47" value="16B" style="shape=partialRectangle;html=1;whiteSpace=wrap;connectable=0;overflow=hidden;fillColor=#ffe6cc;top=1;left=1;bottom=1;right=1;pointerEvents=1;fontFamily=Times New Roman;fontSize=16;fontStyle=1;strokeColor=#000000;" parent="7SQm9wMSUSITr90rz6Yy-44" vertex="1">
          <mxGeometry x="160" width="60" height="30" as="geometry">
            <mxRectangle width="60" height="30" as="alternateBounds" />
          </mxGeometry>
        </mxCell>
        <mxCell id="7SQm9wMSUSITr90rz6Yy-48" value="&lt;font color=&quot;#ff0000&quot;&gt;BIOS入口地址&lt;/font&gt;，此地址的指令是jmp f000:e05b" style="shape=partialRectangle;html=1;whiteSpace=wrap;connectable=0;overflow=hidden;fillColor=#ffe6cc;top=1;left=1;bottom=1;right=1;pointerEvents=1;fontFamily=Times New Roman;fontSize=12;strokeColor=#000000;" parent="7SQm9wMSUSITr90rz6Yy-44" vertex="1">
          <mxGeometry x="220" width="350" height="30" as="geometry">
            <mxRectangle width="350" height="30" as="alternateBounds" />
          </mxGeometry>
        </mxCell>
        <mxCell id="7SQm9wMSUSITr90rz6Yy-49" value="" style="shape=tableRow;horizontal=0;startSize=0;swimlaneHead=0;swimlaneBody=0;top=0;left=0;bottom=0;right=0;collapsible=0;dropTarget=0;fillColor=none;points=[[0,0.5],[1,0.5]];portConstraint=eastwest;fontFamily=Times New Roman;fontSize=18;" parent="7SQm9wMSUSITr90rz6Yy-38" vertex="1">
          <mxGeometry y="430" width="570" height="30" as="geometry" />
        </mxCell>
        <mxCell id="7SQm9wMSUSITr90rz6Yy-50" value="F0000" style="shape=partialRectangle;html=1;whiteSpace=wrap;connectable=0;overflow=hidden;fillColor=#ffe6cc;top=1;left=1;bottom=1;right=1;pointerEvents=1;fontFamily=Times New Roman;fontSize=16;fontStyle=1;strokeColor=#000000;" parent="7SQm9wMSUSITr90rz6Yy-49" vertex="1">
          <mxGeometry width="70" height="30" as="geometry">
            <mxRectangle width="70" height="30" as="alternateBounds" />
          </mxGeometry>
        </mxCell>
        <mxCell id="7SQm9wMSUSITr90rz6Yy-51" value="FFFEF" style="shape=partialRectangle;html=1;whiteSpace=wrap;connectable=0;overflow=hidden;fillColor=#ffe6cc;top=1;left=1;bottom=1;right=1;pointerEvents=1;fontFamily=Times New Roman;fontSize=16;fontStyle=1;strokeColor=#000000;" parent="7SQm9wMSUSITr90rz6Yy-49" vertex="1">
          <mxGeometry x="70" width="90" height="30" as="geometry">
            <mxRectangle width="90" height="30" as="alternateBounds" />
          </mxGeometry>
        </mxCell>
        <mxCell id="7SQm9wMSUSITr90rz6Yy-52" value="160KB" style="shape=partialRectangle;html=1;whiteSpace=wrap;connectable=0;overflow=hidden;fillColor=#ffe6cc;top=1;left=1;bottom=1;right=1;pointerEvents=1;fontFamily=Times New Roman;fontSize=16;fontStyle=1;strokeColor=#000000;" parent="7SQm9wMSUSITr90rz6Yy-49" vertex="1">
          <mxGeometry x="160" width="60" height="30" as="geometry">
            <mxRectangle width="60" height="30" as="alternateBounds" />
          </mxGeometry>
        </mxCell>
        <mxCell id="7SQm9wMSUSITr90rz6Yy-53" value="系统BIOS范围是F0000~FFFFF共64KB" style="shape=partialRectangle;html=1;whiteSpace=wrap;connectable=0;overflow=hidden;fillColor=#ffe6cc;top=1;left=1;bottom=1;right=1;pointerEvents=1;fontFamily=Times New Roman;fontSize=12;strokeColor=#000000;sketch=0;shadow=0;" parent="7SQm9wMSUSITr90rz6Yy-49" vertex="1">
          <mxGeometry x="220" width="350" height="30" as="geometry">
            <mxRectangle width="350" height="30" as="alternateBounds" />
          </mxGeometry>
        </mxCell>
        <mxCell id="7SQm9wMSUSITr90rz6Yy-54" style="shape=tableRow;horizontal=0;startSize=0;swimlaneHead=0;swimlaneBody=0;top=0;left=0;bottom=0;right=0;collapsible=0;dropTarget=0;fillColor=none;points=[[0,0.5],[1,0.5]];portConstraint=eastwest;fontFamily=Times New Roman;fontSize=18;" parent="7SQm9wMSUSITr90rz6Yy-38" vertex="1">
          <mxGeometry y="460" width="570" height="30" as="geometry" />
        </mxCell>
        <mxCell id="7SQm9wMSUSITr90rz6Yy-55" value="C8000" style="shape=partialRectangle;html=1;whiteSpace=wrap;connectable=0;overflow=hidden;fillColor=none;top=0;left=0;bottom=0;right=0;pointerEvents=1;fontFamily=Times New Roman;fontSize=16;fontStyle=1" parent="7SQm9wMSUSITr90rz6Yy-54" vertex="1">
          <mxGeometry width="70" height="30" as="geometry">
            <mxRectangle width="70" height="30" as="alternateBounds" />
          </mxGeometry>
        </mxCell>
        <mxCell id="7SQm9wMSUSITr90rz6Yy-56" value="EFFFF" style="shape=partialRectangle;html=1;whiteSpace=wrap;connectable=0;overflow=hidden;fillColor=none;top=0;left=0;bottom=0;right=0;pointerEvents=1;fontFamily=Times New Roman;fontSize=16;fontStyle=1" parent="7SQm9wMSUSITr90rz6Yy-54" vertex="1">
          <mxGeometry x="70" width="90" height="30" as="geometry">
            <mxRectangle width="90" height="30" as="alternateBounds" />
          </mxGeometry>
        </mxCell>
        <mxCell id="7SQm9wMSUSITr90rz6Yy-57" value="32KB" style="shape=partialRectangle;html=1;whiteSpace=wrap;connectable=0;overflow=hidden;fillColor=none;top=0;left=0;bottom=0;right=0;pointerEvents=1;fontFamily=Times New Roman;fontSize=16;fontStyle=1" parent="7SQm9wMSUSITr90rz6Yy-54" vertex="1">
          <mxGeometry x="160" width="60" height="30" as="geometry">
            <mxRectangle width="60" height="30" as="alternateBounds" />
          </mxGeometry>
        </mxCell>
        <mxCell id="7SQm9wMSUSITr90rz6Yy-58" value="映射硬件适配器的ROM或内存映射式IO" style="shape=partialRectangle;html=1;whiteSpace=wrap;connectable=0;overflow=hidden;fillColor=none;top=0;left=0;bottom=0;right=0;pointerEvents=1;fontFamily=Times New Roman;fontSize=12;" parent="7SQm9wMSUSITr90rz6Yy-54" vertex="1">
          <mxGeometry x="220" width="350" height="30" as="geometry">
            <mxRectangle width="350" height="30" as="alternateBounds" />
          </mxGeometry>
        </mxCell>
        <mxCell id="7SQm9wMSUSITr90rz6Yy-59" value="" style="shape=tableRow;horizontal=0;startSize=0;swimlaneHead=0;swimlaneBody=0;top=0;left=0;bottom=0;right=0;collapsible=0;dropTarget=0;fillColor=none;points=[[0,0.5],[1,0.5]];portConstraint=eastwest;fontFamily=Times New Roman;fontSize=18;" parent="7SQm9wMSUSITr90rz6Yy-38" vertex="1">
          <mxGeometry y="490" width="570" height="30" as="geometry" />
        </mxCell>
        <mxCell id="7SQm9wMSUSITr90rz6Yy-60" value="C0000" style="shape=partialRectangle;html=1;whiteSpace=wrap;connectable=0;overflow=hidden;fillColor=none;top=0;left=0;bottom=0;right=0;pointerEvents=1;fontFamily=Times New Roman;fontSize=16;fontStyle=1" parent="7SQm9wMSUSITr90rz6Yy-59" vertex="1">
          <mxGeometry width="70" height="30" as="geometry">
            <mxRectangle width="70" height="30" as="alternateBounds" />
          </mxGeometry>
        </mxCell>
        <mxCell id="7SQm9wMSUSITr90rz6Yy-61" value="C7FFF" style="shape=partialRectangle;html=1;whiteSpace=wrap;connectable=0;overflow=hidden;fillColor=none;top=0;left=0;bottom=0;right=0;pointerEvents=1;fontFamily=Times New Roman;fontSize=16;fontStyle=1" parent="7SQm9wMSUSITr90rz6Yy-59" vertex="1">
          <mxGeometry x="70" width="90" height="30" as="geometry">
            <mxRectangle width="90" height="30" as="alternateBounds" />
          </mxGeometry>
        </mxCell>
        <mxCell id="7SQm9wMSUSITr90rz6Yy-62" value="32KB" style="shape=partialRectangle;html=1;whiteSpace=wrap;connectable=0;overflow=hidden;fillColor=none;top=0;left=0;bottom=0;right=0;pointerEvents=1;fontFamily=Times New Roman;fontSize=16;fontStyle=1" parent="7SQm9wMSUSITr90rz6Yy-59" vertex="1">
          <mxGeometry x="160" width="60" height="30" as="geometry">
            <mxRectangle width="60" height="30" as="alternateBounds" />
          </mxGeometry>
        </mxCell>
        <mxCell id="7SQm9wMSUSITr90rz6Yy-63" value="显示适配器BIOS" style="shape=partialRectangle;html=1;whiteSpace=wrap;connectable=0;overflow=hidden;fillColor=none;top=0;left=0;bottom=0;right=0;pointerEvents=1;fontFamily=Times New Roman;fontSize=12;" parent="7SQm9wMSUSITr90rz6Yy-59" vertex="1">
          <mxGeometry x="220" width="350" height="30" as="geometry">
            <mxRectangle width="350" height="30" as="alternateBounds" />
          </mxGeometry>
        </mxCell>
        <mxCell id="7SQm9wMSUSITr90rz6Yy-64" value="" style="shape=tableRow;horizontal=0;startSize=0;swimlaneHead=0;swimlaneBody=0;top=0;left=0;bottom=0;right=0;collapsible=0;dropTarget=0;fillColor=none;points=[[0,0.5],[1,0.5]];portConstraint=eastwest;fontFamily=Times New Roman;fontSize=18;" parent="7SQm9wMSUSITr90rz6Yy-38" vertex="1">
          <mxGeometry y="520" width="570" height="30" as="geometry" />
        </mxCell>
        <mxCell id="7SQm9wMSUSITr90rz6Yy-65" value="B8000" style="shape=partialRectangle;html=1;whiteSpace=wrap;connectable=0;overflow=hidden;fillColor=none;top=0;left=0;bottom=0;right=0;pointerEvents=1;fontFamily=Times New Roman;fontSize=16;fontStyle=1" parent="7SQm9wMSUSITr90rz6Yy-64" vertex="1">
          <mxGeometry width="70" height="30" as="geometry">
            <mxRectangle width="70" height="30" as="alternateBounds" />
          </mxGeometry>
        </mxCell>
        <mxCell id="7SQm9wMSUSITr90rz6Yy-66" value="BFFFF" style="shape=partialRectangle;html=1;whiteSpace=wrap;connectable=0;overflow=hidden;fillColor=none;top=0;left=0;bottom=0;right=0;pointerEvents=1;fontFamily=Times New Roman;fontSize=16;fontStyle=1" parent="7SQm9wMSUSITr90rz6Yy-64" vertex="1">
          <mxGeometry x="70" width="90" height="30" as="geometry">
            <mxRectangle width="90" height="30" as="alternateBounds" />
          </mxGeometry>
        </mxCell>
        <mxCell id="7SQm9wMSUSITr90rz6Yy-67" value="32KB" style="shape=partialRectangle;html=1;whiteSpace=wrap;connectable=0;overflow=hidden;fillColor=none;top=0;left=0;bottom=0;right=0;pointerEvents=1;fontFamily=Times New Roman;fontSize=16;fontStyle=1" parent="7SQm9wMSUSITr90rz6Yy-64" vertex="1">
          <mxGeometry x="160" width="60" height="30" as="geometry">
            <mxRectangle width="60" height="30" as="alternateBounds" />
          </mxGeometry>
        </mxCell>
        <mxCell id="7SQm9wMSUSITr90rz6Yy-68" value="用于文本模式显示适配器" style="shape=partialRectangle;html=1;whiteSpace=wrap;connectable=0;overflow=hidden;fillColor=none;top=0;left=0;bottom=0;right=0;pointerEvents=1;fontFamily=Times New Roman;fontSize=12;" parent="7SQm9wMSUSITr90rz6Yy-64" vertex="1">
          <mxGeometry x="220" width="350" height="30" as="geometry">
            <mxRectangle width="350" height="30" as="alternateBounds" />
          </mxGeometry>
        </mxCell>
        <mxCell id="7SQm9wMSUSITr90rz6Yy-69" value="" style="shape=tableRow;horizontal=0;startSize=0;swimlaneHead=0;swimlaneBody=0;top=0;left=0;bottom=0;right=0;collapsible=0;dropTarget=0;fillColor=none;points=[[0,0.5],[1,0.5]];portConstraint=eastwest;fontFamily=Times New Roman;fontSize=18;" parent="7SQm9wMSUSITr90rz6Yy-38" vertex="1">
          <mxGeometry y="550" width="570" height="30" as="geometry" />
        </mxCell>
        <mxCell id="7SQm9wMSUSITr90rz6Yy-70" value="B0000" style="shape=partialRectangle;html=1;whiteSpace=wrap;connectable=0;overflow=hidden;fillColor=none;top=0;left=0;bottom=0;right=0;pointerEvents=1;fontFamily=Times New Roman;fontSize=16;fontStyle=1" parent="7SQm9wMSUSITr90rz6Yy-69" vertex="1">
          <mxGeometry width="70" height="30" as="geometry">
            <mxRectangle width="70" height="30" as="alternateBounds" />
          </mxGeometry>
        </mxCell>
        <mxCell id="7SQm9wMSUSITr90rz6Yy-71" value="B7FFF" style="shape=partialRectangle;html=1;whiteSpace=wrap;connectable=0;overflow=hidden;fillColor=none;top=0;left=0;bottom=0;right=0;pointerEvents=1;fontFamily=Times New Roman;fontSize=16;fontStyle=1" parent="7SQm9wMSUSITr90rz6Yy-69" vertex="1">
          <mxGeometry x="70" width="90" height="30" as="geometry">
            <mxRectangle width="90" height="30" as="alternateBounds" />
          </mxGeometry>
        </mxCell>
        <mxCell id="7SQm9wMSUSITr90rz6Yy-72" value="32KB" style="shape=partialRectangle;html=1;whiteSpace=wrap;connectable=0;overflow=hidden;fillColor=none;top=0;left=0;bottom=0;right=0;pointerEvents=1;fontFamily=Times New Roman;fontSize=16;fontStyle=1" parent="7SQm9wMSUSITr90rz6Yy-69" vertex="1">
          <mxGeometry x="160" width="60" height="30" as="geometry">
            <mxRectangle width="60" height="30" as="alternateBounds" />
          </mxGeometry>
        </mxCell>
        <mxCell id="7SQm9wMSUSITr90rz6Yy-73" value="用于黑白显示适配器" style="shape=partialRectangle;html=1;whiteSpace=wrap;connectable=0;overflow=hidden;fillColor=none;top=0;left=0;bottom=0;right=0;pointerEvents=1;fontFamily=Times New Roman;fontSize=12;" parent="7SQm9wMSUSITr90rz6Yy-69" vertex="1">
          <mxGeometry x="220" width="350" height="30" as="geometry">
            <mxRectangle width="350" height="30" as="alternateBounds" />
          </mxGeometry>
        </mxCell>
        <mxCell id="7SQm9wMSUSITr90rz6Yy-74" value="" style="shape=tableRow;horizontal=0;startSize=0;swimlaneHead=0;swimlaneBody=0;top=0;left=0;bottom=0;right=0;collapsible=0;dropTarget=0;fillColor=none;points=[[0,0.5],[1,0.5]];portConstraint=eastwest;fontFamily=Times New Roman;fontSize=18;" parent="7SQm9wMSUSITr90rz6Yy-38" vertex="1">
          <mxGeometry y="580" width="570" height="30" as="geometry" />
        </mxCell>
        <mxCell id="7SQm9wMSUSITr90rz6Yy-75" value="A0000" style="shape=partialRectangle;html=1;whiteSpace=wrap;connectable=0;overflow=hidden;fillColor=none;top=0;left=0;bottom=0;right=0;pointerEvents=1;fontFamily=Times New Roman;fontSize=16;fontStyle=1" parent="7SQm9wMSUSITr90rz6Yy-74" vertex="1">
          <mxGeometry width="70" height="30" as="geometry">
            <mxRectangle width="70" height="30" as="alternateBounds" />
          </mxGeometry>
        </mxCell>
        <mxCell id="7SQm9wMSUSITr90rz6Yy-76" value="AFFFF" style="shape=partialRectangle;html=1;whiteSpace=wrap;connectable=0;overflow=hidden;fillColor=none;top=0;left=0;bottom=0;right=0;pointerEvents=1;fontFamily=Times New Roman;fontSize=16;fontStyle=1" parent="7SQm9wMSUSITr90rz6Yy-74" vertex="1">
          <mxGeometry x="70" width="90" height="30" as="geometry">
            <mxRectangle width="90" height="30" as="alternateBounds" />
          </mxGeometry>
        </mxCell>
        <mxCell id="7SQm9wMSUSITr90rz6Yy-77" value="64KB" style="shape=partialRectangle;html=1;whiteSpace=wrap;connectable=0;overflow=hidden;fillColor=none;top=0;left=0;bottom=0;right=0;pointerEvents=1;fontFamily=Times New Roman;fontSize=16;fontStyle=1" parent="7SQm9wMSUSITr90rz6Yy-74" vertex="1">
          <mxGeometry x="160" width="60" height="30" as="geometry">
            <mxRectangle width="60" height="30" as="alternateBounds" />
          </mxGeometry>
        </mxCell>
        <mxCell id="7SQm9wMSUSITr90rz6Yy-78" value="用于彩色显示适配器" style="shape=partialRectangle;html=1;whiteSpace=wrap;connectable=0;overflow=hidden;fillColor=none;top=0;left=0;bottom=0;right=0;pointerEvents=1;fontFamily=Times New Roman;fontSize=12;" parent="7SQm9wMSUSITr90rz6Yy-74" vertex="1">
          <mxGeometry x="220" width="350" height="30" as="geometry">
            <mxRectangle width="350" height="30" as="alternateBounds" />
          </mxGeometry>
        </mxCell>
        <mxCell id="7SQm9wMSUSITr90rz6Yy-79" value="" style="shape=tableRow;horizontal=0;startSize=0;swimlaneHead=0;swimlaneBody=0;top=0;left=0;bottom=0;right=0;collapsible=0;dropTarget=0;fillColor=none;points=[[0,0.5],[1,0.5]];portConstraint=eastwest;fontFamily=Times New Roman;fontSize=18;" parent="7SQm9wMSUSITr90rz6Yy-38" vertex="1">
          <mxGeometry y="610" width="570" height="30" as="geometry" />
        </mxCell>
        <mxCell id="7SQm9wMSUSITr90rz6Yy-80" value="9FC00" style="shape=partialRectangle;html=1;whiteSpace=wrap;connectable=0;overflow=hidden;fillColor=none;top=0;left=0;bottom=0;right=0;pointerEvents=1;fontFamily=Times New Roman;fontSize=16;fontStyle=1" parent="7SQm9wMSUSITr90rz6Yy-79" vertex="1">
          <mxGeometry width="70" height="30" as="geometry">
            <mxRectangle width="70" height="30" as="alternateBounds" />
          </mxGeometry>
        </mxCell>
        <mxCell id="7SQm9wMSUSITr90rz6Yy-81" value="9FFFF" style="shape=partialRectangle;html=1;whiteSpace=wrap;connectable=0;overflow=hidden;fillColor=none;top=0;left=0;bottom=0;right=0;pointerEvents=1;fontFamily=Times New Roman;fontSize=16;fontStyle=1" parent="7SQm9wMSUSITr90rz6Yy-79" vertex="1">
          <mxGeometry x="70" width="90" height="30" as="geometry">
            <mxRectangle width="90" height="30" as="alternateBounds" />
          </mxGeometry>
        </mxCell>
        <mxCell id="7SQm9wMSUSITr90rz6Yy-82" value="1KB" style="shape=partialRectangle;html=1;whiteSpace=wrap;connectable=0;overflow=hidden;fillColor=none;top=0;left=0;bottom=0;right=0;pointerEvents=1;fontFamily=Times New Roman;fontSize=16;fontStyle=1" parent="7SQm9wMSUSITr90rz6Yy-79" vertex="1">
          <mxGeometry x="160" width="60" height="30" as="geometry">
            <mxRectangle width="60" height="30" as="alternateBounds" />
          </mxGeometry>
        </mxCell>
        <mxCell id="7SQm9wMSUSITr90rz6Yy-83" value="EBDA 扩展BIOS数据区" style="shape=partialRectangle;html=1;whiteSpace=wrap;connectable=0;overflow=hidden;fillColor=none;top=0;left=0;bottom=0;right=0;pointerEvents=1;fontFamily=Times New Roman;fontSize=12;" parent="7SQm9wMSUSITr90rz6Yy-79" vertex="1">
          <mxGeometry x="220" width="350" height="30" as="geometry">
            <mxRectangle width="350" height="30" as="alternateBounds" />
          </mxGeometry>
        </mxCell>
        <mxCell id="7SQm9wMSUSITr90rz6Yy-84" value="" style="shape=tableRow;horizontal=0;startSize=0;swimlaneHead=0;swimlaneBody=0;top=0;left=0;bottom=0;right=0;collapsible=0;dropTarget=0;fillColor=none;points=[[0,0.5],[1,0.5]];portConstraint=eastwest;fontFamily=Times New Roman;fontSize=18;" parent="7SQm9wMSUSITr90rz6Yy-38" vertex="1">
          <mxGeometry y="640" width="570" height="30" as="geometry" />
        </mxCell>
        <mxCell id="7SQm9wMSUSITr90rz6Yy-85" value="7E00" style="shape=partialRectangle;html=1;whiteSpace=wrap;connectable=0;overflow=hidden;fillColor=none;top=0;left=0;bottom=0;right=0;pointerEvents=1;fontFamily=Times New Roman;fontSize=16;fontStyle=1" parent="7SQm9wMSUSITr90rz6Yy-84" vertex="1">
          <mxGeometry width="70" height="30" as="geometry">
            <mxRectangle width="70" height="30" as="alternateBounds" />
          </mxGeometry>
        </mxCell>
        <mxCell id="7SQm9wMSUSITr90rz6Yy-86" value="9FBFF" style="shape=partialRectangle;html=1;whiteSpace=wrap;connectable=0;overflow=hidden;fillColor=none;top=0;left=0;bottom=0;right=0;pointerEvents=1;fontFamily=Times New Roman;fontSize=16;fontStyle=1" parent="7SQm9wMSUSITr90rz6Yy-84" vertex="1">
          <mxGeometry x="70" width="90" height="30" as="geometry">
            <mxRectangle width="90" height="30" as="alternateBounds" />
          </mxGeometry>
        </mxCell>
        <mxCell id="7SQm9wMSUSITr90rz6Yy-87" value="~608KB" style="shape=partialRectangle;html=1;whiteSpace=wrap;connectable=0;overflow=hidden;fillColor=none;top=0;left=0;bottom=0;right=0;pointerEvents=1;fontFamily=Times New Roman;fontSize=16;fontStyle=1" parent="7SQm9wMSUSITr90rz6Yy-84" vertex="1">
          <mxGeometry x="160" width="60" height="30" as="geometry">
            <mxRectangle width="60" height="30" as="alternateBounds" />
          </mxGeometry>
        </mxCell>
        <mxCell id="7SQm9wMSUSITr90rz6Yy-88" value="可用区域" style="shape=partialRectangle;html=1;whiteSpace=wrap;connectable=0;overflow=hidden;fillColor=none;top=0;left=0;bottom=0;right=0;pointerEvents=1;fontFamily=Times New Roman;fontSize=12;" parent="7SQm9wMSUSITr90rz6Yy-84" vertex="1">
          <mxGeometry x="220" width="350" height="30" as="geometry">
            <mxRectangle width="350" height="30" as="alternateBounds" />
          </mxGeometry>
        </mxCell>
        <mxCell id="7SQm9wMSUSITr90rz6Yy-89" value="" style="shape=tableRow;horizontal=0;startSize=0;swimlaneHead=0;swimlaneBody=0;top=0;left=0;bottom=0;right=0;collapsible=0;dropTarget=0;fillColor=none;points=[[0,0.5],[1,0.5]];portConstraint=eastwest;fontFamily=Times New Roman;fontSize=18;" parent="7SQm9wMSUSITr90rz6Yy-38" vertex="1">
          <mxGeometry y="670" width="570" height="30" as="geometry" />
        </mxCell>
        <mxCell id="7SQm9wMSUSITr90rz6Yy-90" value="7C00" style="shape=partialRectangle;html=1;whiteSpace=wrap;connectable=0;overflow=hidden;fillColor=#b1ddf0;top=1;left=1;bottom=1;right=1;pointerEvents=1;fontFamily=Times New Roman;fontSize=16;fontStyle=1;strokeColor=#000000;fillOpacity=100;" parent="7SQm9wMSUSITr90rz6Yy-89" vertex="1">
          <mxGeometry width="70" height="30" as="geometry">
            <mxRectangle width="70" height="30" as="alternateBounds" />
          </mxGeometry>
        </mxCell>
        <mxCell id="7SQm9wMSUSITr90rz6Yy-91" value="7DFF" style="shape=partialRectangle;html=1;whiteSpace=wrap;connectable=0;overflow=hidden;fillColor=#b1ddf0;top=1;left=1;bottom=1;right=1;pointerEvents=1;fontFamily=Times New Roman;fontSize=16;fontStyle=1;strokeColor=#000000;fillOpacity=100;" parent="7SQm9wMSUSITr90rz6Yy-89" vertex="1">
          <mxGeometry x="70" width="90" height="30" as="geometry">
            <mxRectangle width="90" height="30" as="alternateBounds" />
          </mxGeometry>
        </mxCell>
        <mxCell id="7SQm9wMSUSITr90rz6Yy-92" value="512B" style="shape=partialRectangle;html=1;whiteSpace=wrap;connectable=0;overflow=hidden;fillColor=#b1ddf0;top=1;left=1;bottom=1;right=1;pointerEvents=1;fontFamily=Times New Roman;fontSize=16;fontStyle=1;strokeColor=#000000;fillOpacity=100;" parent="7SQm9wMSUSITr90rz6Yy-89" vertex="1">
          <mxGeometry x="160" width="60" height="30" as="geometry">
            <mxRectangle width="60" height="30" as="alternateBounds" />
          </mxGeometry>
        </mxCell>
        <mxCell id="7SQm9wMSUSITr90rz6Yy-93" value="MBR被BIOS加载到此处，共512字节" style="shape=partialRectangle;html=1;whiteSpace=wrap;connectable=0;overflow=hidden;fillColor=#b1ddf0;top=1;left=1;bottom=1;right=1;pointerEvents=1;fontFamily=Times New Roman;fontSize=12;strokeColor=#000000;fillOpacity=100;" parent="7SQm9wMSUSITr90rz6Yy-89" vertex="1">
          <mxGeometry x="220" width="350" height="30" as="geometry">
            <mxRectangle width="350" height="30" as="alternateBounds" />
          </mxGeometry>
        </mxCell>
        <mxCell id="7SQm9wMSUSITr90rz6Yy-94" value="" style="shape=tableRow;horizontal=0;startSize=0;swimlaneHead=0;swimlaneBody=0;top=0;left=0;bottom=0;right=0;collapsible=0;dropTarget=0;fillColor=none;points=[[0,0.5],[1,0.5]];portConstraint=eastwest;fontFamily=Times New Roman;fontSize=18;" parent="7SQm9wMSUSITr90rz6Yy-38" vertex="1">
          <mxGeometry y="700" width="570" height="30" as="geometry" />
        </mxCell>
        <mxCell id="7SQm9wMSUSITr90rz6Yy-95" value="962" style="shape=partialRectangle;html=1;whiteSpace=wrap;connectable=0;overflow=hidden;fillColor=none;top=0;left=0;bottom=0;right=0;pointerEvents=1;fontFamily=Times New Roman;fontSize=16;fontStyle=1" parent="7SQm9wMSUSITr90rz6Yy-94" vertex="1">
          <mxGeometry width="70" height="30" as="geometry">
            <mxRectangle width="70" height="30" as="alternateBounds" />
          </mxGeometry>
        </mxCell>
        <mxCell id="7SQm9wMSUSITr90rz6Yy-96" value="7BFF" style="shape=partialRectangle;html=1;whiteSpace=wrap;connectable=0;overflow=hidden;fillColor=none;top=0;left=0;bottom=0;right=0;pointerEvents=1;fontFamily=Times New Roman;fontSize=16;fontStyle=1" parent="7SQm9wMSUSITr90rz6Yy-94" vertex="1">
          <mxGeometry x="70" width="90" height="30" as="geometry">
            <mxRectangle width="90" height="30" as="alternateBounds" />
          </mxGeometry>
        </mxCell>
        <mxCell id="7SQm9wMSUSITr90rz6Yy-97" value="~" style="shape=partialRectangle;html=1;whiteSpace=wrap;connectable=0;overflow=hidden;fillColor=none;top=0;left=0;bottom=0;right=0;pointerEvents=1;fontFamily=Times New Roman;fontSize=16;fontStyle=1" parent="7SQm9wMSUSITr90rz6Yy-94" vertex="1">
          <mxGeometry x="160" width="60" height="30" as="geometry">
            <mxRectangle width="60" height="30" as="alternateBounds" />
          </mxGeometry>
        </mxCell>
        <mxCell id="7SQm9wMSUSITr90rz6Yy-98" value="可用区域" style="shape=partialRectangle;html=1;whiteSpace=wrap;connectable=0;overflow=hidden;fillColor=none;top=0;left=0;bottom=0;right=0;pointerEvents=1;fontFamily=Times New Roman;fontSize=12;" parent="7SQm9wMSUSITr90rz6Yy-94" vertex="1">
          <mxGeometry x="220" width="350" height="30" as="geometry">
            <mxRectangle width="350" height="30" as="alternateBounds" />
          </mxGeometry>
        </mxCell>
        <mxCell id="7SQm9wMSUSITr90rz6Yy-174" style="shape=tableRow;horizontal=0;startSize=0;swimlaneHead=0;swimlaneBody=0;top=0;left=0;bottom=0;right=0;collapsible=0;dropTarget=0;fillColor=none;points=[[0,0.5],[1,0.5]];portConstraint=eastwest;fontFamily=Times New Roman;fontSize=18;" parent="7SQm9wMSUSITr90rz6Yy-38" vertex="1">
          <mxGeometry y="730" width="570" height="30" as="geometry" />
        </mxCell>
        <mxCell id="7SQm9wMSUSITr90rz6Yy-175" value="C00" style="shape=partialRectangle;html=1;whiteSpace=wrap;connectable=0;overflow=hidden;fillColor=#e1d5e7;top=1;left=1;bottom=1;right=1;pointerEvents=1;fontFamily=Times New Roman;fontSize=16;fontStyle=1;strokeColor=#9673a6;" parent="7SQm9wMSUSITr90rz6Yy-174" vertex="1">
          <mxGeometry width="70" height="30" as="geometry">
            <mxRectangle width="70" height="30" as="alternateBounds" />
          </mxGeometry>
        </mxCell>
        <mxCell id="7SQm9wMSUSITr90rz6Yy-176" value="~" style="shape=partialRectangle;html=1;whiteSpace=wrap;connectable=0;overflow=hidden;fillColor=#e1d5e7;top=1;left=1;bottom=1;right=1;pointerEvents=1;fontFamily=Times New Roman;fontSize=16;fontStyle=1;strokeColor=#9673a6;" parent="7SQm9wMSUSITr90rz6Yy-174" vertex="1">
          <mxGeometry x="70" width="90" height="30" as="geometry">
            <mxRectangle width="90" height="30" as="alternateBounds" />
          </mxGeometry>
        </mxCell>
        <mxCell id="7SQm9wMSUSITr90rz6Yy-177" style="shape=partialRectangle;html=1;whiteSpace=wrap;connectable=0;overflow=hidden;fillColor=#e1d5e7;top=1;left=1;bottom=1;right=1;pointerEvents=1;fontFamily=Times New Roman;fontSize=16;fontStyle=1;strokeColor=#9673a6;" parent="7SQm9wMSUSITr90rz6Yy-174" vertex="1">
          <mxGeometry x="160" width="60" height="30" as="geometry">
            <mxRectangle width="60" height="30" as="alternateBounds" />
          </mxGeometry>
        </mxCell>
        <mxCell id="7SQm9wMSUSITr90rz6Yy-178" value="&lt;font color=&quot;#cc0000&quot;&gt;loader入口地址&lt;/font&gt;，往后就是loader的代码" style="shape=partialRectangle;html=1;whiteSpace=wrap;connectable=0;overflow=hidden;fillColor=#e1d5e7;top=1;left=1;bottom=1;right=1;pointerEvents=1;fontFamily=Times New Roman;fontSize=12;strokeColor=#9673a6;" parent="7SQm9wMSUSITr90rz6Yy-174" vertex="1">
          <mxGeometry x="220" width="350" height="30" as="geometry">
            <mxRectangle width="350" height="30" as="alternateBounds" />
          </mxGeometry>
        </mxCell>
        <mxCell id="7SQm9wMSUSITr90rz6Yy-164" style="shape=tableRow;horizontal=0;startSize=0;swimlaneHead=0;swimlaneBody=0;top=0;left=0;bottom=0;right=0;collapsible=0;dropTarget=0;fillColor=none;points=[[0,0.5],[1,0.5]];portConstraint=eastwest;fontFamily=Times New Roman;fontSize=18;" parent="7SQm9wMSUSITr90rz6Yy-38" vertex="1">
          <mxGeometry y="760" width="570" height="30" as="geometry" />
        </mxCell>
        <mxCell id="7SQm9wMSUSITr90rz6Yy-165" value="" style="shape=partialRectangle;html=1;whiteSpace=wrap;connectable=0;overflow=hidden;fillColor=#fff2cc;top=1;left=1;bottom=1;right=1;pointerEvents=1;fontFamily=Times New Roman;fontSize=16;fontStyle=1;strokeColor=#d6b656;" parent="7SQm9wMSUSITr90rz6Yy-164" vertex="1">
          <mxGeometry width="70" height="30" as="geometry">
            <mxRectangle width="70" height="30" as="alternateBounds" />
          </mxGeometry>
        </mxCell>
        <mxCell id="7SQm9wMSUSITr90rz6Yy-166" value="" style="shape=partialRectangle;html=1;whiteSpace=wrap;connectable=0;overflow=hidden;fillColor=#fff2cc;top=1;left=1;bottom=1;right=1;pointerEvents=1;fontFamily=Times New Roman;fontSize=16;fontStyle=1;strokeColor=#d6b656;" parent="7SQm9wMSUSITr90rz6Yy-164" vertex="1">
          <mxGeometry x="70" width="90" height="30" as="geometry">
            <mxRectangle width="90" height="30" as="alternateBounds" />
          </mxGeometry>
        </mxCell>
        <mxCell id="7SQm9wMSUSITr90rz6Yy-167" value="" style="shape=partialRectangle;html=1;whiteSpace=wrap;connectable=0;overflow=hidden;fillColor=#fff2cc;top=1;left=1;bottom=1;right=1;pointerEvents=1;fontFamily=Times New Roman;fontSize=16;fontStyle=1;strokeColor=#d6b656;" parent="7SQm9wMSUSITr90rz6Yy-164" vertex="1">
          <mxGeometry x="160" width="60" height="30" as="geometry">
            <mxRectangle width="60" height="30" as="alternateBounds" />
          </mxGeometry>
        </mxCell>
        <mxCell id="7SQm9wMSUSITr90rz6Yy-168" value="ards_buf244 + adrs_nr2 检测物理内存时用到的缓冲区" style="shape=partialRectangle;html=1;whiteSpace=wrap;connectable=0;overflow=hidden;fillColor=#fff2cc;top=1;left=1;bottom=1;right=1;pointerEvents=1;fontFamily=Times New Roman;fontSize=12;strokeColor=#d6b656;" parent="7SQm9wMSUSITr90rz6Yy-164" vertex="1">
          <mxGeometry x="220" width="350" height="30" as="geometry">
            <mxRectangle width="350" height="30" as="alternateBounds" />
          </mxGeometry>
        </mxCell>
        <mxCell id="7SQm9wMSUSITr90rz6Yy-159" style="shape=tableRow;horizontal=0;startSize=0;swimlaneHead=0;swimlaneBody=0;top=0;left=0;bottom=0;right=0;collapsible=0;dropTarget=0;fillColor=none;points=[[0,0.5],[1,0.5]];portConstraint=eastwest;fontFamily=Times New Roman;fontSize=18;" parent="7SQm9wMSUSITr90rz6Yy-38" vertex="1">
          <mxGeometry y="790" width="570" height="30" as="geometry" />
        </mxCell>
        <mxCell id="7SQm9wMSUSITr90rz6Yy-160" value="B04" style="shape=partialRectangle;html=1;whiteSpace=wrap;connectable=0;overflow=hidden;fillColor=#fff2cc;top=1;left=1;bottom=1;right=1;pointerEvents=1;fontFamily=Times New Roman;fontSize=16;fontStyle=1;strokeColor=#d6b656;" parent="7SQm9wMSUSITr90rz6Yy-159" vertex="1">
          <mxGeometry width="70" height="30" as="geometry">
            <mxRectangle width="70" height="30" as="alternateBounds" />
          </mxGeometry>
        </mxCell>
        <mxCell id="7SQm9wMSUSITr90rz6Yy-161" value="B09" style="shape=partialRectangle;html=1;whiteSpace=wrap;connectable=0;overflow=hidden;fillColor=#fff2cc;top=1;left=1;bottom=1;right=1;pointerEvents=1;fontFamily=Times New Roman;fontSize=16;fontStyle=1;strokeColor=#d6b656;" parent="7SQm9wMSUSITr90rz6Yy-159" vertex="1">
          <mxGeometry x="70" width="90" height="30" as="geometry">
            <mxRectangle width="90" height="30" as="alternateBounds" />
          </mxGeometry>
        </mxCell>
        <mxCell id="7SQm9wMSUSITr90rz6Yy-162" value="6B" style="shape=partialRectangle;html=1;whiteSpace=wrap;connectable=0;overflow=hidden;fillColor=#fff2cc;top=1;left=1;bottom=1;right=1;pointerEvents=1;fontFamily=Times New Roman;fontSize=16;fontStyle=1;strokeColor=#d6b656;" parent="7SQm9wMSUSITr90rz6Yy-159" vertex="1">
          <mxGeometry x="160" width="60" height="30" as="geometry">
            <mxRectangle width="60" height="30" as="alternateBounds" />
          </mxGeometry>
        </mxCell>
        <mxCell id="7SQm9wMSUSITr90rz6Yy-163" value="此处是要装载到GDTR的48位数据，GDT起始地址和界限值" style="shape=partialRectangle;html=1;whiteSpace=wrap;connectable=0;overflow=hidden;fillColor=#fff2cc;top=1;left=1;bottom=1;right=1;pointerEvents=1;fontFamily=Times New Roman;fontSize=12;strokeColor=#d6b656;" parent="7SQm9wMSUSITr90rz6Yy-159" vertex="1">
          <mxGeometry x="220" width="350" height="30" as="geometry">
            <mxRectangle width="350" height="30" as="alternateBounds" />
          </mxGeometry>
        </mxCell>
        <mxCell id="ehd0csxChEnp2E-2lRP0-60" style="shape=tableRow;horizontal=0;startSize=0;swimlaneHead=0;swimlaneBody=0;top=0;left=0;bottom=0;right=0;collapsible=0;dropTarget=0;fillColor=none;points=[[0,0.5],[1,0.5]];portConstraint=eastwest;fontFamily=Times New Roman;fontSize=18;" vertex="1" parent="7SQm9wMSUSITr90rz6Yy-38">
          <mxGeometry y="820" width="570" height="30" as="geometry" />
        </mxCell>
        <mxCell id="ehd0csxChEnp2E-2lRP0-61" value="B00" style="shape=partialRectangle;html=1;whiteSpace=wrap;connectable=0;overflow=hidden;fillColor=#fff2cc;top=1;left=1;bottom=1;right=1;pointerEvents=1;fontFamily=Times New Roman;fontSize=16;fontStyle=1;strokeColor=#d6b656;" vertex="1" parent="ehd0csxChEnp2E-2lRP0-60">
          <mxGeometry width="70" height="30" as="geometry">
            <mxRectangle width="70" height="30" as="alternateBounds" />
          </mxGeometry>
        </mxCell>
        <mxCell id="ehd0csxChEnp2E-2lRP0-62" value="B03" style="shape=partialRectangle;html=1;whiteSpace=wrap;connectable=0;overflow=hidden;fillColor=#fff2cc;top=1;left=1;bottom=1;right=1;pointerEvents=1;fontFamily=Times New Roman;fontSize=16;fontStyle=1;strokeColor=#d6b656;" vertex="1" parent="ehd0csxChEnp2E-2lRP0-60">
          <mxGeometry x="70" width="90" height="30" as="geometry">
            <mxRectangle width="90" height="30" as="alternateBounds" />
          </mxGeometry>
        </mxCell>
        <mxCell id="ehd0csxChEnp2E-2lRP0-63" value="4B" style="shape=partialRectangle;html=1;whiteSpace=wrap;connectable=0;overflow=hidden;fillColor=#fff2cc;top=1;left=1;bottom=1;right=1;pointerEvents=1;fontFamily=Times New Roman;fontSize=16;fontStyle=1;strokeColor=#d6b656;" vertex="1" parent="ehd0csxChEnp2E-2lRP0-60">
          <mxGeometry x="160" width="60" height="30" as="geometry">
            <mxRectangle width="60" height="30" as="alternateBounds" />
          </mxGeometry>
        </mxCell>
        <mxCell id="ehd0csxChEnp2E-2lRP0-64" value="检测出的物理内存大小　total_mem_bytes&amp;nbsp; 实际内存大小是32MB" style="shape=partialRectangle;html=1;whiteSpace=wrap;connectable=0;overflow=hidden;fillColor=#fff2cc;top=1;left=1;bottom=1;right=1;pointerEvents=1;fontFamily=Times New Roman;fontSize=12;strokeColor=#d6b656;" vertex="1" parent="ehd0csxChEnp2E-2lRP0-60">
          <mxGeometry x="220" width="350" height="30" as="geometry">
            <mxRectangle width="350" height="30" as="alternateBounds" />
          </mxGeometry>
        </mxCell>
        <mxCell id="7SQm9wMSUSITr90rz6Yy-154" style="shape=tableRow;horizontal=0;startSize=0;swimlaneHead=0;swimlaneBody=0;top=0;left=0;bottom=0;right=0;collapsible=0;dropTarget=0;fillColor=none;points=[[0,0.5],[1,0.5]];portConstraint=eastwest;fontFamily=Times New Roman;fontSize=18;" parent="7SQm9wMSUSITr90rz6Yy-38" vertex="1">
          <mxGeometry y="850" width="570" height="30" as="geometry" />
        </mxCell>
        <mxCell id="7SQm9wMSUSITr90rz6Yy-155" value="~" style="shape=partialRectangle;html=1;whiteSpace=wrap;connectable=0;overflow=hidden;fillColor=#f8cecc;top=1;left=1;bottom=1;right=1;pointerEvents=1;fontFamily=Times New Roman;fontSize=16;fontStyle=1;strokeColor=#000000;" parent="7SQm9wMSUSITr90rz6Yy-154" vertex="1">
          <mxGeometry width="70" height="30" as="geometry">
            <mxRectangle width="70" height="30" as="alternateBounds" />
          </mxGeometry>
        </mxCell>
        <mxCell id="7SQm9wMSUSITr90rz6Yy-156" value="~" style="shape=partialRectangle;html=1;whiteSpace=wrap;connectable=0;overflow=hidden;fillColor=#f8cecc;top=1;left=1;bottom=1;right=1;pointerEvents=1;fontFamily=Times New Roman;fontSize=16;fontStyle=1;strokeColor=#000000;" parent="7SQm9wMSUSITr90rz6Yy-154" vertex="1">
          <mxGeometry x="70" width="90" height="30" as="geometry">
            <mxRectangle width="90" height="30" as="alternateBounds" />
          </mxGeometry>
        </mxCell>
        <mxCell id="7SQm9wMSUSITr90rz6Yy-157" value="480B" style="shape=partialRectangle;html=1;whiteSpace=wrap;connectable=0;overflow=hidden;fillColor=#f8cecc;top=1;left=1;bottom=1;right=1;pointerEvents=1;fontFamily=Times New Roman;fontSize=16;fontStyle=1;strokeColor=#000000;" parent="7SQm9wMSUSITr90rz6Yy-154" vertex="1">
          <mxGeometry x="160" width="60" height="30" as="geometry">
            <mxRectangle width="60" height="30" as="alternateBounds" />
          </mxGeometry>
        </mxCell>
        <mxCell id="7SQm9wMSUSITr90rz6Yy-158" value="预留的60个段描述符" style="shape=partialRectangle;html=1;whiteSpace=wrap;connectable=0;overflow=hidden;fillColor=#f8cecc;top=1;left=1;bottom=1;right=1;pointerEvents=1;fontFamily=Times New Roman;fontSize=12;strokeColor=#000000;" parent="7SQm9wMSUSITr90rz6Yy-154" vertex="1">
          <mxGeometry x="220" width="350" height="30" as="geometry">
            <mxRectangle width="350" height="30" as="alternateBounds" />
          </mxGeometry>
        </mxCell>
        <mxCell id="7SQm9wMSUSITr90rz6Yy-144" style="shape=tableRow;horizontal=0;startSize=0;swimlaneHead=0;swimlaneBody=0;top=0;left=0;bottom=0;right=0;collapsible=0;dropTarget=0;fillColor=none;points=[[0,0.5],[1,0.5]];portConstraint=eastwest;fontFamily=Times New Roman;fontSize=18;" parent="7SQm9wMSUSITr90rz6Yy-38" vertex="1">
          <mxGeometry y="880" width="570" height="30" as="geometry" />
        </mxCell>
        <mxCell id="7SQm9wMSUSITr90rz6Yy-145" value="~" style="shape=partialRectangle;html=1;whiteSpace=wrap;connectable=0;overflow=hidden;fillColor=#f8cecc;top=1;left=1;bottom=1;right=1;pointerEvents=1;fontFamily=Times New Roman;fontSize=16;fontStyle=1;strokeColor=#000000;" parent="7SQm9wMSUSITr90rz6Yy-144" vertex="1">
          <mxGeometry width="70" height="30" as="geometry">
            <mxRectangle width="70" height="30" as="alternateBounds" />
          </mxGeometry>
        </mxCell>
        <mxCell id="7SQm9wMSUSITr90rz6Yy-146" value="~" style="shape=partialRectangle;html=1;whiteSpace=wrap;connectable=0;overflow=hidden;fillColor=#f8cecc;top=1;left=1;bottom=1;right=1;pointerEvents=1;fontFamily=Times New Roman;fontSize=16;fontStyle=1;strokeColor=#000000;" parent="7SQm9wMSUSITr90rz6Yy-144" vertex="1">
          <mxGeometry x="70" width="90" height="30" as="geometry">
            <mxRectangle width="90" height="30" as="alternateBounds" />
          </mxGeometry>
        </mxCell>
        <mxCell id="7SQm9wMSUSITr90rz6Yy-147" value="8B" style="shape=partialRectangle;html=1;whiteSpace=wrap;connectable=0;overflow=hidden;fillColor=#f8cecc;top=1;left=1;bottom=1;right=1;pointerEvents=1;fontFamily=Times New Roman;fontSize=16;fontStyle=1;strokeColor=#000000;" parent="7SQm9wMSUSITr90rz6Yy-144" vertex="1">
          <mxGeometry x="160" width="60" height="30" as="geometry">
            <mxRectangle width="60" height="30" as="alternateBounds" />
          </mxGeometry>
        </mxCell>
        <mxCell id="7SQm9wMSUSITr90rz6Yy-148" value="GDT第三个描述符：显存段描述符，段起始为0xb8000,是显示适配器的区域" style="shape=partialRectangle;html=1;whiteSpace=wrap;connectable=0;overflow=hidden;fillColor=#f8cecc;top=1;left=1;bottom=1;right=1;pointerEvents=1;fontFamily=Times New Roman;fontSize=12;strokeColor=#000000;" parent="7SQm9wMSUSITr90rz6Yy-144" vertex="1">
          <mxGeometry x="220" width="350" height="30" as="geometry">
            <mxRectangle width="350" height="30" as="alternateBounds" />
          </mxGeometry>
        </mxCell>
        <mxCell id="7SQm9wMSUSITr90rz6Yy-149" style="shape=tableRow;horizontal=0;startSize=0;swimlaneHead=0;swimlaneBody=0;top=0;left=0;bottom=0;right=0;collapsible=0;dropTarget=0;fillColor=none;points=[[0,0.5],[1,0.5]];portConstraint=eastwest;fontFamily=Times New Roman;fontSize=18;" parent="7SQm9wMSUSITr90rz6Yy-38" vertex="1">
          <mxGeometry y="910" width="570" height="30" as="geometry" />
        </mxCell>
        <mxCell id="7SQm9wMSUSITr90rz6Yy-150" value="~" style="shape=partialRectangle;html=1;whiteSpace=wrap;connectable=0;overflow=hidden;fillColor=#f8cecc;top=1;left=1;bottom=1;right=1;pointerEvents=1;fontFamily=Times New Roman;fontSize=16;fontStyle=1;strokeColor=#000000;" parent="7SQm9wMSUSITr90rz6Yy-149" vertex="1">
          <mxGeometry width="70" height="30" as="geometry">
            <mxRectangle width="70" height="30" as="alternateBounds" />
          </mxGeometry>
        </mxCell>
        <mxCell id="7SQm9wMSUSITr90rz6Yy-151" value="~" style="shape=partialRectangle;html=1;whiteSpace=wrap;connectable=0;overflow=hidden;fillColor=#f8cecc;top=1;left=1;bottom=1;right=1;pointerEvents=1;fontFamily=Times New Roman;fontSize=16;fontStyle=1;strokeColor=#000000;" parent="7SQm9wMSUSITr90rz6Yy-149" vertex="1">
          <mxGeometry x="70" width="90" height="30" as="geometry">
            <mxRectangle width="90" height="30" as="alternateBounds" />
          </mxGeometry>
        </mxCell>
        <mxCell id="7SQm9wMSUSITr90rz6Yy-152" value="8B" style="shape=partialRectangle;html=1;whiteSpace=wrap;connectable=0;overflow=hidden;fillColor=#f8cecc;top=1;left=1;bottom=1;right=1;pointerEvents=1;fontFamily=Times New Roman;fontSize=16;fontStyle=1;strokeColor=#000000;" parent="7SQm9wMSUSITr90rz6Yy-149" vertex="1">
          <mxGeometry x="160" width="60" height="30" as="geometry">
            <mxRectangle width="60" height="30" as="alternateBounds" />
          </mxGeometry>
        </mxCell>
        <mxCell id="7SQm9wMSUSITr90rz6Yy-153" value="GDT第三个描述符：内核栈段描述符，段起始为00000000" style="shape=partialRectangle;html=1;whiteSpace=wrap;connectable=0;overflow=hidden;fillColor=#f8cecc;top=1;left=1;bottom=1;right=1;pointerEvents=1;fontFamily=Times New Roman;fontSize=12;strokeColor=#000000;" parent="7SQm9wMSUSITr90rz6Yy-149" vertex="1">
          <mxGeometry x="220" width="350" height="30" as="geometry">
            <mxRectangle width="350" height="30" as="alternateBounds" />
          </mxGeometry>
        </mxCell>
        <mxCell id="7SQm9wMSUSITr90rz6Yy-139" style="shape=tableRow;horizontal=0;startSize=0;swimlaneHead=0;swimlaneBody=0;top=0;left=0;bottom=0;right=0;collapsible=0;dropTarget=0;fillColor=none;points=[[0,0.5],[1,0.5]];portConstraint=eastwest;fontFamily=Times New Roman;fontSize=18;" parent="7SQm9wMSUSITr90rz6Yy-38" vertex="1">
          <mxGeometry y="940" width="570" height="30" as="geometry" />
        </mxCell>
        <mxCell id="7SQm9wMSUSITr90rz6Yy-140" value="~" style="shape=partialRectangle;html=1;whiteSpace=wrap;connectable=0;overflow=hidden;fillColor=#f8cecc;top=1;left=1;bottom=1;right=1;pointerEvents=1;fontFamily=Times New Roman;fontSize=16;fontStyle=1;strokeColor=#000000;" parent="7SQm9wMSUSITr90rz6Yy-139" vertex="1">
          <mxGeometry width="70" height="30" as="geometry">
            <mxRectangle width="70" height="30" as="alternateBounds" />
          </mxGeometry>
        </mxCell>
        <mxCell id="7SQm9wMSUSITr90rz6Yy-141" value="~" style="shape=partialRectangle;html=1;whiteSpace=wrap;connectable=0;overflow=hidden;fillColor=#f8cecc;top=1;left=1;bottom=1;right=1;pointerEvents=1;fontFamily=Times New Roman;fontSize=16;fontStyle=1;strokeColor=#000000;" parent="7SQm9wMSUSITr90rz6Yy-139" vertex="1">
          <mxGeometry x="70" width="90" height="30" as="geometry">
            <mxRectangle width="90" height="30" as="alternateBounds" />
          </mxGeometry>
        </mxCell>
        <mxCell id="7SQm9wMSUSITr90rz6Yy-142" value="8B" style="shape=partialRectangle;html=1;whiteSpace=wrap;connectable=0;overflow=hidden;fillColor=#f8cecc;top=1;left=1;bottom=1;right=1;pointerEvents=1;fontFamily=Times New Roman;fontSize=16;fontStyle=1;strokeColor=#000000;" parent="7SQm9wMSUSITr90rz6Yy-139" vertex="1">
          <mxGeometry x="160" width="60" height="30" as="geometry">
            <mxRectangle width="60" height="30" as="alternateBounds" />
          </mxGeometry>
        </mxCell>
        <mxCell id="7SQm9wMSUSITr90rz6Yy-143" value="GDT第二个描述符：内核数据段描述符，段起始为00000000" style="shape=partialRectangle;html=1;whiteSpace=wrap;connectable=0;overflow=hidden;fillColor=#f8cecc;top=1;left=1;bottom=1;right=1;pointerEvents=1;fontFamily=Times New Roman;fontSize=12;strokeColor=#000000;" parent="7SQm9wMSUSITr90rz6Yy-139" vertex="1">
          <mxGeometry x="220" width="350" height="30" as="geometry">
            <mxRectangle width="350" height="30" as="alternateBounds" />
          </mxGeometry>
        </mxCell>
        <mxCell id="7SQm9wMSUSITr90rz6Yy-129" style="shape=tableRow;horizontal=0;startSize=0;swimlaneHead=0;swimlaneBody=0;top=0;left=0;bottom=0;right=0;collapsible=0;dropTarget=0;fillColor=none;points=[[0,0.5],[1,0.5]];portConstraint=eastwest;fontFamily=Times New Roman;fontSize=18;" parent="7SQm9wMSUSITr90rz6Yy-38" vertex="1">
          <mxGeometry y="970" width="570" height="30" as="geometry" />
        </mxCell>
        <mxCell id="7SQm9wMSUSITr90rz6Yy-130" value="~" style="shape=partialRectangle;html=1;whiteSpace=wrap;connectable=0;overflow=hidden;fillColor=#f8cecc;top=1;left=1;bottom=1;right=1;pointerEvents=1;fontFamily=Times New Roman;fontSize=16;fontStyle=1;strokeColor=#000000;" parent="7SQm9wMSUSITr90rz6Yy-129" vertex="1">
          <mxGeometry width="70" height="30" as="geometry">
            <mxRectangle width="70" height="30" as="alternateBounds" />
          </mxGeometry>
        </mxCell>
        <mxCell id="7SQm9wMSUSITr90rz6Yy-131" value="~" style="shape=partialRectangle;html=1;whiteSpace=wrap;connectable=0;overflow=hidden;fillColor=#f8cecc;top=1;left=1;bottom=1;right=1;pointerEvents=1;fontFamily=Times New Roman;fontSize=16;fontStyle=1;strokeColor=#000000;" parent="7SQm9wMSUSITr90rz6Yy-129" vertex="1">
          <mxGeometry x="70" width="90" height="30" as="geometry">
            <mxRectangle width="90" height="30" as="alternateBounds" />
          </mxGeometry>
        </mxCell>
        <mxCell id="7SQm9wMSUSITr90rz6Yy-132" value="8B" style="shape=partialRectangle;html=1;whiteSpace=wrap;connectable=0;overflow=hidden;fillColor=#f8cecc;top=1;left=1;bottom=1;right=1;pointerEvents=1;fontFamily=Times New Roman;fontSize=16;fontStyle=1;strokeColor=#000000;" parent="7SQm9wMSUSITr90rz6Yy-129" vertex="1">
          <mxGeometry x="160" width="60" height="30" as="geometry">
            <mxRectangle width="60" height="30" as="alternateBounds" />
          </mxGeometry>
        </mxCell>
        <mxCell id="7SQm9wMSUSITr90rz6Yy-133" value="GDT第一个描述符：内核代码段描述符，段起始为00000000" style="shape=partialRectangle;html=1;whiteSpace=wrap;connectable=0;overflow=hidden;fillColor=#f8cecc;top=1;left=1;bottom=1;right=1;pointerEvents=1;fontFamily=Times New Roman;fontSize=12;strokeColor=#000000;" parent="7SQm9wMSUSITr90rz6Yy-129" vertex="1">
          <mxGeometry x="220" width="350" height="30" as="geometry">
            <mxRectangle width="350" height="30" as="alternateBounds" />
          </mxGeometry>
        </mxCell>
        <mxCell id="7SQm9wMSUSITr90rz6Yy-99" value="" style="shape=tableRow;horizontal=0;startSize=0;swimlaneHead=0;swimlaneBody=0;top=0;left=0;bottom=0;right=0;collapsible=0;dropTarget=0;fillColor=none;points=[[0,0.5],[1,0.5]];portConstraint=eastwest;fontFamily=Times New Roman;fontSize=18;" parent="7SQm9wMSUSITr90rz6Yy-38" vertex="1">
          <mxGeometry y="1000" width="570" height="30" as="geometry" />
        </mxCell>
        <mxCell id="7SQm9wMSUSITr90rz6Yy-100" value="900" style="shape=partialRectangle;html=1;whiteSpace=wrap;connectable=0;overflow=hidden;fillColor=#f8cecc;top=1;left=1;bottom=1;right=1;pointerEvents=1;fontFamily=Times New Roman;fontSize=16;fontStyle=1;strokeColor=#000000;" parent="7SQm9wMSUSITr90rz6Yy-99" vertex="1">
          <mxGeometry width="70" height="30" as="geometry">
            <mxRectangle width="70" height="30" as="alternateBounds" />
          </mxGeometry>
        </mxCell>
        <mxCell id="7SQm9wMSUSITr90rz6Yy-101" value="~" style="shape=partialRectangle;html=1;whiteSpace=wrap;connectable=0;overflow=hidden;fillColor=#f8cecc;top=1;left=1;bottom=1;right=1;pointerEvents=1;fontFamily=Times New Roman;fontSize=16;fontStyle=1;strokeColor=#000000;" parent="7SQm9wMSUSITr90rz6Yy-99" vertex="1">
          <mxGeometry x="70" width="90" height="30" as="geometry">
            <mxRectangle width="90" height="30" as="alternateBounds" />
          </mxGeometry>
        </mxCell>
        <mxCell id="7SQm9wMSUSITr90rz6Yy-102" value="8B" style="shape=partialRectangle;html=1;whiteSpace=wrap;connectable=0;overflow=hidden;fillColor=#f8cecc;top=1;left=1;bottom=1;right=1;pointerEvents=1;fontFamily=Times New Roman;fontSize=16;fontStyle=1;strokeColor=#000000;" parent="7SQm9wMSUSITr90rz6Yy-99" vertex="1">
          <mxGeometry x="160" width="60" height="30" as="geometry">
            <mxRectangle width="60" height="30" as="alternateBounds" />
          </mxGeometry>
        </mxCell>
        <mxCell id="7SQm9wMSUSITr90rz6Yy-103" value="内核加载器Loader被MBR加载到此处,开始便是GDT的第0个描述符" style="shape=partialRectangle;html=1;whiteSpace=wrap;connectable=0;overflow=hidden;fillColor=#f8cecc;top=1;left=1;bottom=1;right=1;pointerEvents=1;fontFamily=Times New Roman;fontSize=12;strokeColor=#000000;" parent="7SQm9wMSUSITr90rz6Yy-99" vertex="1">
          <mxGeometry x="220" width="350" height="30" as="geometry">
            <mxRectangle width="350" height="30" as="alternateBounds" />
          </mxGeometry>
        </mxCell>
        <mxCell id="7SQm9wMSUSITr90rz6Yy-104" value="" style="shape=tableRow;horizontal=0;startSize=0;swimlaneHead=0;swimlaneBody=0;top=0;left=0;bottom=0;right=0;collapsible=0;dropTarget=0;fillColor=none;points=[[0,0.5],[1,0.5]];portConstraint=eastwest;fontFamily=Times New Roman;fontSize=18;" parent="7SQm9wMSUSITr90rz6Yy-38" vertex="1">
          <mxGeometry y="1030" width="570" height="30" as="geometry" />
        </mxCell>
        <mxCell id="7SQm9wMSUSITr90rz6Yy-105" value="500" style="shape=partialRectangle;html=1;whiteSpace=wrap;connectable=0;overflow=hidden;fillColor=#fa6800;top=0;left=0;bottom=0;right=0;pointerEvents=1;fontFamily=Times New Roman;fontSize=16;fontStyle=1;fontColor=#000000;strokeColor=#C73500;" parent="7SQm9wMSUSITr90rz6Yy-104" vertex="1">
          <mxGeometry width="70" height="30" as="geometry">
            <mxRectangle width="70" height="30" as="alternateBounds" />
          </mxGeometry>
        </mxCell>
        <mxCell id="7SQm9wMSUSITr90rz6Yy-106" value="8FF" style="shape=partialRectangle;html=1;whiteSpace=wrap;connectable=0;overflow=hidden;fillColor=#fa6800;top=0;left=0;bottom=0;right=0;pointerEvents=1;fontFamily=Times New Roman;fontSize=16;fontStyle=1;fontColor=#000000;strokeColor=#C73500;" parent="7SQm9wMSUSITr90rz6Yy-104" vertex="1">
          <mxGeometry x="70" width="90" height="30" as="geometry">
            <mxRectangle width="90" height="30" as="alternateBounds" />
          </mxGeometry>
        </mxCell>
        <mxCell id="7SQm9wMSUSITr90rz6Yy-107" value="1KB" style="shape=partialRectangle;html=1;whiteSpace=wrap;connectable=0;overflow=hidden;fillColor=#fa6800;top=0;left=0;bottom=0;right=0;pointerEvents=1;fontFamily=Times New Roman;fontSize=16;fontStyle=1;fontColor=#000000;strokeColor=#C73500;" parent="7SQm9wMSUSITr90rz6Yy-104" vertex="1">
          <mxGeometry x="160" width="60" height="30" as="geometry">
            <mxRectangle width="60" height="30" as="alternateBounds" />
          </mxGeometry>
        </mxCell>
        <mxCell id="7SQm9wMSUSITr90rz6Yy-108" value="loader_stack，开启保护模式后esp指向0x900" style="shape=partialRectangle;html=1;whiteSpace=wrap;connectable=0;overflow=hidden;fillColor=#fa6800;top=0;left=0;bottom=0;right=0;pointerEvents=1;fontFamily=Times New Roman;fontSize=12;fontColor=#000000;strokeColor=#C73500;" parent="7SQm9wMSUSITr90rz6Yy-104" vertex="1">
          <mxGeometry x="220" width="350" height="30" as="geometry">
            <mxRectangle width="350" height="30" as="alternateBounds" />
          </mxGeometry>
        </mxCell>
        <mxCell id="7SQm9wMSUSITr90rz6Yy-109" value="" style="shape=tableRow;horizontal=0;startSize=0;swimlaneHead=0;swimlaneBody=0;top=0;left=0;bottom=0;right=0;collapsible=0;dropTarget=0;fillColor=none;points=[[0,0.5],[1,0.5]];portConstraint=eastwest;fontFamily=Times New Roman;fontSize=18;" parent="7SQm9wMSUSITr90rz6Yy-38" vertex="1">
          <mxGeometry y="1060" width="570" height="30" as="geometry" />
        </mxCell>
        <mxCell id="7SQm9wMSUSITr90rz6Yy-110" value="400" style="shape=partialRectangle;html=1;whiteSpace=wrap;connectable=0;overflow=hidden;fillColor=none;top=0;left=0;bottom=0;right=0;pointerEvents=1;fontFamily=Times New Roman;fontSize=16;fontStyle=1" parent="7SQm9wMSUSITr90rz6Yy-109" vertex="1">
          <mxGeometry width="70" height="30" as="geometry">
            <mxRectangle width="70" height="30" as="alternateBounds" />
          </mxGeometry>
        </mxCell>
        <mxCell id="7SQm9wMSUSITr90rz6Yy-111" value="4FF" style="shape=partialRectangle;html=1;whiteSpace=wrap;connectable=0;overflow=hidden;fillColor=none;top=0;left=0;bottom=0;right=0;pointerEvents=1;fontFamily=Times New Roman;fontSize=16;fontStyle=1" parent="7SQm9wMSUSITr90rz6Yy-109" vertex="1">
          <mxGeometry x="70" width="90" height="30" as="geometry">
            <mxRectangle width="90" height="30" as="alternateBounds" />
          </mxGeometry>
        </mxCell>
        <mxCell id="7SQm9wMSUSITr90rz6Yy-112" value="256B" style="shape=partialRectangle;html=1;whiteSpace=wrap;connectable=0;overflow=hidden;fillColor=none;top=0;left=0;bottom=0;right=0;pointerEvents=1;fontFamily=Times New Roman;fontSize=16;fontStyle=1" parent="7SQm9wMSUSITr90rz6Yy-109" vertex="1">
          <mxGeometry x="160" width="60" height="30" as="geometry">
            <mxRectangle width="60" height="30" as="alternateBounds" />
          </mxGeometry>
        </mxCell>
        <mxCell id="7SQm9wMSUSITr90rz6Yy-113" value="BIOS Data Area(BIOS 数据区)" style="shape=partialRectangle;html=1;whiteSpace=wrap;connectable=0;overflow=hidden;fillColor=none;top=0;left=0;bottom=0;right=0;pointerEvents=1;fontFamily=Times New Roman;fontSize=12;" parent="7SQm9wMSUSITr90rz6Yy-109" vertex="1">
          <mxGeometry x="220" width="350" height="30" as="geometry">
            <mxRectangle width="350" height="30" as="alternateBounds" />
          </mxGeometry>
        </mxCell>
        <mxCell id="7SQm9wMSUSITr90rz6Yy-114" value="" style="shape=tableRow;horizontal=0;startSize=0;swimlaneHead=0;swimlaneBody=0;top=0;left=0;bottom=0;right=0;collapsible=0;dropTarget=0;fillColor=none;points=[[0,0.5],[1,0.5]];portConstraint=eastwest;fontFamily=Times New Roman;fontSize=18;" parent="7SQm9wMSUSITr90rz6Yy-38" vertex="1">
          <mxGeometry y="1090" width="570" height="30" as="geometry" />
        </mxCell>
        <mxCell id="7SQm9wMSUSITr90rz6Yy-115" value="000" style="shape=partialRectangle;html=1;whiteSpace=wrap;connectable=0;overflow=hidden;fillColor=none;top=0;left=0;bottom=0;right=0;pointerEvents=1;fontFamily=Times New Roman;fontSize=16;fontStyle=1" parent="7SQm9wMSUSITr90rz6Yy-114" vertex="1">
          <mxGeometry width="70" height="30" as="geometry">
            <mxRectangle width="70" height="30" as="alternateBounds" />
          </mxGeometry>
        </mxCell>
        <mxCell id="7SQm9wMSUSITr90rz6Yy-116" value="3FF" style="shape=partialRectangle;html=1;whiteSpace=wrap;connectable=0;overflow=hidden;fillColor=none;top=0;left=0;bottom=0;right=0;pointerEvents=1;fontFamily=Times New Roman;fontSize=16;fontStyle=1" parent="7SQm9wMSUSITr90rz6Yy-114" vertex="1">
          <mxGeometry x="70" width="90" height="30" as="geometry">
            <mxRectangle width="90" height="30" as="alternateBounds" />
          </mxGeometry>
        </mxCell>
        <mxCell id="7SQm9wMSUSITr90rz6Yy-117" value="1KB" style="shape=partialRectangle;html=1;whiteSpace=wrap;connectable=0;overflow=hidden;fillColor=none;top=0;left=0;bottom=0;right=0;pointerEvents=1;fontFamily=Times New Roman;fontSize=16;fontStyle=1" parent="7SQm9wMSUSITr90rz6Yy-114" vertex="1">
          <mxGeometry x="160" width="60" height="30" as="geometry">
            <mxRectangle width="60" height="30" as="alternateBounds" />
          </mxGeometry>
        </mxCell>
        <mxCell id="7SQm9wMSUSITr90rz6Yy-118" value="Interrupt Vector Table(中断向量表)" style="shape=partialRectangle;html=1;whiteSpace=wrap;connectable=0;overflow=hidden;fillColor=none;top=0;left=0;bottom=0;right=0;pointerEvents=1;fontFamily=Times New Roman;fontSize=12;" parent="7SQm9wMSUSITr90rz6Yy-114" vertex="1">
          <mxGeometry x="220" width="350" height="30" as="geometry">
            <mxRectangle width="350" height="30" as="alternateBounds" />
          </mxGeometry>
        </mxCell>
        <mxCell id="48GPICAs6xY3-qm-Drvi-1" value="选择子结构" style="shape=table;startSize=30;container=1;collapsible=0;childLayout=tableLayout;fillColor=#ffe6cc;strokeColor=#d79b00;fontSize=17;" parent="1" vertex="1">
          <mxGeometry x="110" y="-3640" width="690" height="70" as="geometry" />
        </mxCell>
        <mxCell id="48GPICAs6xY3-qm-Drvi-2" value="" style="shape=tableRow;horizontal=0;startSize=0;swimlaneHead=0;swimlaneBody=0;top=0;left=0;bottom=0;right=0;collapsible=0;dropTarget=0;fillColor=none;points=[[0,0.5],[1,0.5]];portConstraint=eastwest;" parent="48GPICAs6xY3-qm-Drvi-1" vertex="1">
          <mxGeometry y="30" width="690" height="40" as="geometry" />
        </mxCell>
        <mxCell id="48GPICAs6xY3-qm-Drvi-3" value="描述符索引值&lt;span style=&quot;white-space: pre&quot;&gt; &lt;/span&gt;15~4" style="shape=partialRectangle;html=1;whiteSpace=wrap;connectable=0;overflow=hidden;fillColor=none;top=0;left=0;bottom=0;right=0;pointerEvents=1;" parent="48GPICAs6xY3-qm-Drvi-2" vertex="1">
          <mxGeometry width="480" height="40" as="geometry">
            <mxRectangle width="480" height="40" as="alternateBounds" />
          </mxGeometry>
        </mxCell>
        <mxCell id="48GPICAs6xY3-qm-Drvi-4" value="TI &lt;span style=&quot;white-space: pre&quot;&gt; &lt;/span&gt;3" style="shape=partialRectangle;html=1;whiteSpace=wrap;connectable=0;overflow=hidden;fillColor=none;top=0;left=0;bottom=0;right=0;pointerEvents=1;" parent="48GPICAs6xY3-qm-Drvi-2" vertex="1">
          <mxGeometry x="480" width="70" height="40" as="geometry">
            <mxRectangle width="70" height="40" as="alternateBounds" />
          </mxGeometry>
        </mxCell>
        <mxCell id="48GPICAs6xY3-qm-Drvi-5" value="RPL&lt;span style=&quot;white-space: pre&quot;&gt; &lt;/span&gt;2~0" style="shape=partialRectangle;html=1;whiteSpace=wrap;connectable=0;overflow=hidden;fillColor=none;top=0;left=0;bottom=0;right=0;pointerEvents=1;" parent="48GPICAs6xY3-qm-Drvi-2" vertex="1">
          <mxGeometry x="550" width="140" height="40" as="geometry">
            <mxRectangle width="140" height="40" as="alternateBounds" />
          </mxGeometry>
        </mxCell>
        <mxCell id="ehd0csxChEnp2E-2lRP0-1" value="页目录项" style="shape=table;startSize=30;container=1;collapsible=0;childLayout=tableLayout;fontSize=17;fillColor=#f8cecc;strokeColor=#b85450;" vertex="1" parent="1">
          <mxGeometry x="110" y="-3230" width="690" height="70" as="geometry" />
        </mxCell>
        <mxCell id="ehd0csxChEnp2E-2lRP0-2" value="" style="shape=tableRow;horizontal=0;startSize=0;swimlaneHead=0;swimlaneBody=0;top=0;left=0;bottom=0;right=0;collapsible=0;dropTarget=0;fillColor=none;points=[[0,0.5],[1,0.5]];portConstraint=eastwest;" vertex="1" parent="ehd0csxChEnp2E-2lRP0-1">
          <mxGeometry y="30" width="690" height="40" as="geometry" />
        </mxCell>
        <mxCell id="ehd0csxChEnp2E-2lRP0-3" value="页表物理地址31~12位" style="shape=partialRectangle;html=1;whiteSpace=wrap;connectable=0;overflow=hidden;fillColor=none;top=0;left=0;bottom=0;right=0;pointerEvents=1;fontSize=17;" vertex="1" parent="ehd0csxChEnp2E-2lRP0-2">
          <mxGeometry width="270" height="40" as="geometry">
            <mxRectangle width="270" height="40" as="alternateBounds" />
          </mxGeometry>
        </mxCell>
        <mxCell id="ehd0csxChEnp2E-2lRP0-4" value="AVL" style="shape=partialRectangle;html=1;whiteSpace=wrap;connectable=0;overflow=hidden;fillColor=none;top=0;left=0;bottom=0;right=0;pointerEvents=1;fontSize=17;" vertex="1" parent="ehd0csxChEnp2E-2lRP0-2">
          <mxGeometry x="270" width="40" height="40" as="geometry">
            <mxRectangle width="40" height="40" as="alternateBounds" />
          </mxGeometry>
        </mxCell>
        <mxCell id="ehd0csxChEnp2E-2lRP0-5" value="G" style="shape=partialRectangle;html=1;whiteSpace=wrap;connectable=0;overflow=hidden;fillColor=none;top=0;left=0;bottom=0;right=0;pointerEvents=1;fontSize=17;" vertex="1" parent="ehd0csxChEnp2E-2lRP0-2">
          <mxGeometry x="310" width="40" height="40" as="geometry">
            <mxRectangle width="40" height="40" as="alternateBounds" />
          </mxGeometry>
        </mxCell>
        <mxCell id="ehd0csxChEnp2E-2lRP0-6" value="0" style="shape=partialRectangle;html=1;whiteSpace=wrap;connectable=0;overflow=hidden;fillColor=none;top=0;left=0;bottom=0;right=0;pointerEvents=1;fontSize=17;" vertex="1" parent="ehd0csxChEnp2E-2lRP0-2">
          <mxGeometry x="350" width="40" height="40" as="geometry">
            <mxRectangle width="40" height="40" as="alternateBounds" />
          </mxGeometry>
        </mxCell>
        <mxCell id="ehd0csxChEnp2E-2lRP0-7" value="D" style="shape=partialRectangle;html=1;whiteSpace=wrap;connectable=0;overflow=hidden;fillColor=none;top=0;left=0;bottom=0;right=0;pointerEvents=1;fontSize=17;" vertex="1" parent="ehd0csxChEnp2E-2lRP0-2">
          <mxGeometry x="390" width="40" height="40" as="geometry">
            <mxRectangle width="40" height="40" as="alternateBounds" />
          </mxGeometry>
        </mxCell>
        <mxCell id="ehd0csxChEnp2E-2lRP0-8" value="A" style="shape=partialRectangle;html=1;whiteSpace=wrap;connectable=0;overflow=hidden;fillColor=none;top=0;left=0;bottom=0;right=0;pointerEvents=1;fontSize=17;" vertex="1" parent="ehd0csxChEnp2E-2lRP0-2">
          <mxGeometry x="430" width="40" height="40" as="geometry">
            <mxRectangle width="40" height="40" as="alternateBounds" />
          </mxGeometry>
        </mxCell>
        <mxCell id="ehd0csxChEnp2E-2lRP0-9" value="PCD" style="shape=partialRectangle;html=1;whiteSpace=wrap;connectable=0;overflow=hidden;fillColor=none;top=0;left=0;bottom=0;right=0;pointerEvents=1;fontSize=17;" vertex="1" parent="ehd0csxChEnp2E-2lRP0-2">
          <mxGeometry x="470" width="50" height="40" as="geometry">
            <mxRectangle width="50" height="40" as="alternateBounds" />
          </mxGeometry>
        </mxCell>
        <mxCell id="ehd0csxChEnp2E-2lRP0-10" value="PWT" style="shape=partialRectangle;html=1;whiteSpace=wrap;connectable=0;overflow=hidden;fillColor=none;top=0;left=0;bottom=0;right=0;pointerEvents=1;fontSize=17;" vertex="1" parent="ehd0csxChEnp2E-2lRP0-2">
          <mxGeometry x="520" width="50" height="40" as="geometry">
            <mxRectangle width="50" height="40" as="alternateBounds" />
          </mxGeometry>
        </mxCell>
        <mxCell id="ehd0csxChEnp2E-2lRP0-11" value="US" style="shape=partialRectangle;html=1;whiteSpace=wrap;connectable=0;overflow=hidden;fillColor=none;top=0;left=0;bottom=0;right=0;pointerEvents=1;fontSize=17;" vertex="1" parent="ehd0csxChEnp2E-2lRP0-2">
          <mxGeometry x="570" width="40" height="40" as="geometry">
            <mxRectangle width="40" height="40" as="alternateBounds" />
          </mxGeometry>
        </mxCell>
        <mxCell id="ehd0csxChEnp2E-2lRP0-12" value="RW" style="shape=partialRectangle;html=1;whiteSpace=wrap;connectable=0;overflow=hidden;fillColor=none;top=0;left=0;bottom=0;right=0;pointerEvents=1;fontSize=17;" vertex="1" parent="ehd0csxChEnp2E-2lRP0-2">
          <mxGeometry x="610" width="40" height="40" as="geometry">
            <mxRectangle width="40" height="40" as="alternateBounds" />
          </mxGeometry>
        </mxCell>
        <mxCell id="ehd0csxChEnp2E-2lRP0-13" value="P" style="shape=partialRectangle;html=1;whiteSpace=wrap;connectable=0;overflow=hidden;fillColor=none;top=0;left=0;bottom=0;right=0;pointerEvents=1;fontSize=17;" vertex="1" parent="ehd0csxChEnp2E-2lRP0-2">
          <mxGeometry x="650" width="40" height="40" as="geometry">
            <mxRectangle width="40" height="40" as="alternateBounds" />
          </mxGeometry>
        </mxCell>
        <mxCell id="ehd0csxChEnp2E-2lRP0-16" value="页表项" style="shape=table;startSize=30;container=1;collapsible=0;childLayout=tableLayout;fontSize=17;fillColor=#f8cecc;strokeColor=#b85450;" vertex="1" parent="1">
          <mxGeometry x="110" y="-3130" width="690" height="70" as="geometry" />
        </mxCell>
        <mxCell id="ehd0csxChEnp2E-2lRP0-17" value="" style="shape=tableRow;horizontal=0;startSize=0;swimlaneHead=0;swimlaneBody=0;top=0;left=0;bottom=0;right=0;collapsible=0;dropTarget=0;fillColor=none;points=[[0,0.5],[1,0.5]];portConstraint=eastwest;" vertex="1" parent="ehd0csxChEnp2E-2lRP0-16">
          <mxGeometry y="30" width="690" height="40" as="geometry" />
        </mxCell>
        <mxCell id="ehd0csxChEnp2E-2lRP0-18" value="页表物理地址31~12位" style="shape=partialRectangle;html=1;whiteSpace=wrap;connectable=0;overflow=hidden;fillColor=none;top=0;left=0;bottom=0;right=0;pointerEvents=1;fontSize=17;" vertex="1" parent="ehd0csxChEnp2E-2lRP0-17">
          <mxGeometry width="270" height="40" as="geometry">
            <mxRectangle width="270" height="40" as="alternateBounds" />
          </mxGeometry>
        </mxCell>
        <mxCell id="ehd0csxChEnp2E-2lRP0-19" value="AVL" style="shape=partialRectangle;html=1;whiteSpace=wrap;connectable=0;overflow=hidden;fillColor=none;top=0;left=0;bottom=0;right=0;pointerEvents=1;fontSize=17;" vertex="1" parent="ehd0csxChEnp2E-2lRP0-17">
          <mxGeometry x="270" width="40" height="40" as="geometry">
            <mxRectangle width="40" height="40" as="alternateBounds" />
          </mxGeometry>
        </mxCell>
        <mxCell id="ehd0csxChEnp2E-2lRP0-20" value="G" style="shape=partialRectangle;html=1;whiteSpace=wrap;connectable=0;overflow=hidden;fillColor=none;top=0;left=0;bottom=0;right=0;pointerEvents=1;fontSize=17;" vertex="1" parent="ehd0csxChEnp2E-2lRP0-17">
          <mxGeometry x="310" width="40" height="40" as="geometry">
            <mxRectangle width="40" height="40" as="alternateBounds" />
          </mxGeometry>
        </mxCell>
        <mxCell id="ehd0csxChEnp2E-2lRP0-21" value="PAT" style="shape=partialRectangle;html=1;whiteSpace=wrap;connectable=0;overflow=hidden;fillColor=none;top=0;left=0;bottom=0;right=0;pointerEvents=1;fontSize=17;" vertex="1" parent="ehd0csxChEnp2E-2lRP0-17">
          <mxGeometry x="350" width="40" height="40" as="geometry">
            <mxRectangle width="40" height="40" as="alternateBounds" />
          </mxGeometry>
        </mxCell>
        <mxCell id="ehd0csxChEnp2E-2lRP0-22" value="D" style="shape=partialRectangle;html=1;whiteSpace=wrap;connectable=0;overflow=hidden;fillColor=none;top=0;left=0;bottom=0;right=0;pointerEvents=1;fontSize=17;" vertex="1" parent="ehd0csxChEnp2E-2lRP0-17">
          <mxGeometry x="390" width="40" height="40" as="geometry">
            <mxRectangle width="40" height="40" as="alternateBounds" />
          </mxGeometry>
        </mxCell>
        <mxCell id="ehd0csxChEnp2E-2lRP0-23" value="A" style="shape=partialRectangle;html=1;whiteSpace=wrap;connectable=0;overflow=hidden;fillColor=none;top=0;left=0;bottom=0;right=0;pointerEvents=1;fontSize=17;" vertex="1" parent="ehd0csxChEnp2E-2lRP0-17">
          <mxGeometry x="430" width="40" height="40" as="geometry">
            <mxRectangle width="40" height="40" as="alternateBounds" />
          </mxGeometry>
        </mxCell>
        <mxCell id="ehd0csxChEnp2E-2lRP0-24" value="PCD" style="shape=partialRectangle;html=1;whiteSpace=wrap;connectable=0;overflow=hidden;fillColor=none;top=0;left=0;bottom=0;right=0;pointerEvents=1;fontSize=17;" vertex="1" parent="ehd0csxChEnp2E-2lRP0-17">
          <mxGeometry x="470" width="50" height="40" as="geometry">
            <mxRectangle width="50" height="40" as="alternateBounds" />
          </mxGeometry>
        </mxCell>
        <mxCell id="ehd0csxChEnp2E-2lRP0-25" value="PWT" style="shape=partialRectangle;html=1;whiteSpace=wrap;connectable=0;overflow=hidden;fillColor=none;top=0;left=0;bottom=0;right=0;pointerEvents=1;fontSize=17;" vertex="1" parent="ehd0csxChEnp2E-2lRP0-17">
          <mxGeometry x="520" width="50" height="40" as="geometry">
            <mxRectangle width="50" height="40" as="alternateBounds" />
          </mxGeometry>
        </mxCell>
        <mxCell id="ehd0csxChEnp2E-2lRP0-26" value="US" style="shape=partialRectangle;html=1;whiteSpace=wrap;connectable=0;overflow=hidden;fillColor=none;top=0;left=0;bottom=0;right=0;pointerEvents=1;fontSize=17;" vertex="1" parent="ehd0csxChEnp2E-2lRP0-17">
          <mxGeometry x="570" width="40" height="40" as="geometry">
            <mxRectangle width="40" height="40" as="alternateBounds" />
          </mxGeometry>
        </mxCell>
        <mxCell id="ehd0csxChEnp2E-2lRP0-27" value="RW" style="shape=partialRectangle;html=1;whiteSpace=wrap;connectable=0;overflow=hidden;fillColor=none;top=0;left=0;bottom=0;right=0;pointerEvents=1;fontSize=17;" vertex="1" parent="ehd0csxChEnp2E-2lRP0-17">
          <mxGeometry x="610" width="40" height="40" as="geometry">
            <mxRectangle width="40" height="40" as="alternateBounds" />
          </mxGeometry>
        </mxCell>
        <mxCell id="ehd0csxChEnp2E-2lRP0-28" value="P" style="shape=partialRectangle;html=1;whiteSpace=wrap;connectable=0;overflow=hidden;fillColor=none;top=0;left=0;bottom=0;right=0;pointerEvents=1;fontSize=17;" vertex="1" parent="ehd0csxChEnp2E-2lRP0-17">
          <mxGeometry x="650" width="40" height="40" as="geometry">
            <mxRectangle width="40" height="40" as="alternateBounds" />
          </mxGeometry>
        </mxCell>
        <mxCell id="ehd0csxChEnp2E-2lRP0-46" value="控制寄存器cr3" style="shape=table;startSize=30;container=1;collapsible=0;childLayout=tableLayout;fontSize=17;fillColor=#e3c800;fontColor=#000000;strokeColor=#B09500;" vertex="1" parent="1">
          <mxGeometry x="110" y="-3380" width="690" height="70" as="geometry" />
        </mxCell>
        <mxCell id="ehd0csxChEnp2E-2lRP0-47" value="" style="shape=tableRow;horizontal=0;startSize=0;swimlaneHead=0;swimlaneBody=0;top=0;left=0;bottom=0;right=0;collapsible=0;dropTarget=0;fillColor=none;points=[[0,0.5],[1,0.5]];portConstraint=eastwest;fontSize=17;" vertex="1" parent="ehd0csxChEnp2E-2lRP0-46">
          <mxGeometry y="30" width="690" height="40" as="geometry" />
        </mxCell>
        <mxCell id="ehd0csxChEnp2E-2lRP0-48" value="页目录表物理地址31~12位" style="shape=partialRectangle;html=1;whiteSpace=wrap;connectable=0;overflow=hidden;fillColor=none;top=0;left=0;bottom=0;right=0;pointerEvents=1;fontSize=17;" vertex="1" parent="ehd0csxChEnp2E-2lRP0-47">
          <mxGeometry width="320" height="40" as="geometry">
            <mxRectangle width="320" height="40" as="alternateBounds" />
          </mxGeometry>
        </mxCell>
        <mxCell id="ehd0csxChEnp2E-2lRP0-49" value="" style="shape=partialRectangle;html=1;whiteSpace=wrap;connectable=0;overflow=hidden;fillColor=none;top=0;left=0;bottom=0;right=0;pointerEvents=1;fontSize=17;" vertex="1" parent="ehd0csxChEnp2E-2lRP0-47">
          <mxGeometry x="320" width="150" height="40" as="geometry">
            <mxRectangle width="150" height="40" as="alternateBounds" />
          </mxGeometry>
        </mxCell>
        <mxCell id="ehd0csxChEnp2E-2lRP0-50" value="PCD" style="shape=partialRectangle;html=1;whiteSpace=wrap;connectable=0;overflow=hidden;fillColor=none;top=0;left=0;bottom=0;right=0;pointerEvents=1;fontSize=17;" vertex="1" parent="ehd0csxChEnp2E-2lRP0-47">
          <mxGeometry x="470" width="60" height="40" as="geometry">
            <mxRectangle width="60" height="40" as="alternateBounds" />
          </mxGeometry>
        </mxCell>
        <mxCell id="ehd0csxChEnp2E-2lRP0-51" value="PWT" style="shape=partialRectangle;html=1;whiteSpace=wrap;connectable=0;overflow=hidden;fillColor=none;top=0;left=0;bottom=0;right=0;pointerEvents=1;fontSize=17;" vertex="1" parent="ehd0csxChEnp2E-2lRP0-47">
          <mxGeometry x="530" width="50" height="40" as="geometry">
            <mxRectangle width="50" height="40" as="alternateBounds" />
          </mxGeometry>
        </mxCell>
        <mxCell id="ehd0csxChEnp2E-2lRP0-52" value="" style="shape=partialRectangle;html=1;whiteSpace=wrap;connectable=0;overflow=hidden;fillColor=none;top=0;left=0;bottom=0;right=0;pointerEvents=1;fontSize=17;" vertex="1" parent="ehd0csxChEnp2E-2lRP0-47">
          <mxGeometry x="580" width="40" height="40" as="geometry">
            <mxRectangle width="40" height="40" as="alternateBounds" />
          </mxGeometry>
        </mxCell>
        <mxCell id="ehd0csxChEnp2E-2lRP0-53" value="" style="shape=partialRectangle;html=1;whiteSpace=wrap;connectable=0;overflow=hidden;fillColor=none;top=0;left=0;bottom=0;right=0;pointerEvents=1;fontSize=17;" vertex="1" parent="ehd0csxChEnp2E-2lRP0-47">
          <mxGeometry x="620" width="40" height="40" as="geometry">
            <mxRectangle width="40" height="40" as="alternateBounds" />
          </mxGeometry>
        </mxCell>
        <mxCell id="ehd0csxChEnp2E-2lRP0-54" value="" style="shape=partialRectangle;html=1;whiteSpace=wrap;connectable=0;overflow=hidden;fillColor=none;top=0;left=0;bottom=0;right=0;pointerEvents=1;fontSize=17;" vertex="1" parent="ehd0csxChEnp2E-2lRP0-47">
          <mxGeometry x="660" width="30" height="40" as="geometry">
            <mxRectangle width="30" height="40" as="alternateBounds" />
          </mxGeometry>
        </mxCell>
        <mxCell id="ehd0csxChEnp2E-2lRP0-67" style="edgeStyle=orthogonalEdgeStyle;rounded=0;orthogonalLoop=1;jettySize=auto;html=1;entryX=0;entryY=0.5;entryDx=0;entryDy=0;fontSize=17;exitX=1;exitY=0.5;exitDx=0;exitDy=0;" edge="1" parent="1" source="ehd0csxChEnp2E-2lRP0-65" target="7SQm9wMSUSITr90rz6Yy-44">
          <mxGeometry relative="1" as="geometry">
            <mxPoint x="1040" y="-4385" as="sourcePoint" />
          </mxGeometry>
        </mxCell>
        <mxCell id="ehd0csxChEnp2E-2lRP0-65" value="&lt;font color=&quot;#ff0000&quot;&gt;低端1M空间&lt;/font&gt;" style="text;html=1;strokeColor=none;fillColor=none;align=center;verticalAlign=middle;whiteSpace=wrap;rounded=0;fontSize=17;" vertex="1" parent="1">
          <mxGeometry x="910" y="-4170" width="100" height="30" as="geometry" />
        </mxCell>
        <mxCell id="ehd0csxChEnp2E-2lRP0-73" value="" style="edgeStyle=orthogonalEdgeStyle;rounded=0;orthogonalLoop=1;jettySize=auto;html=1;fontSize=17;fontColor=#CC0000;" edge="1" parent="1" source="ehd0csxChEnp2E-2lRP0-68">
          <mxGeometry relative="1" as="geometry">
            <mxPoint x="1000" y="-3960" as="targetPoint" />
          </mxGeometry>
        </mxCell>
        <mxCell id="ehd0csxChEnp2E-2lRP0-68" value="" style="shape=curlyBracket;whiteSpace=wrap;html=1;rounded=1;fontSize=17;fontColor=#CC0000;size=0.4;" vertex="1" parent="1">
          <mxGeometry x="1010" y="-4050" width="70" height="180" as="geometry" />
        </mxCell>
        <mxCell id="ehd0csxChEnp2E-2lRP0-72" value="GDT" style="whiteSpace=wrap;html=1;fontSize=17;fontColor=#CC0000;rounded=1;" vertex="1" parent="1">
          <mxGeometry x="960" y="-3975" width="35" height="30" as="geometry" />
        </mxCell>
      </root>
    </mxGraphModel>
  </diagram>
</mxfile>
